<svg width="60" height="60" viewBox="0 0 60 60" fill="none" xmlns="http://www.w3.org/2000/svg">
<circle cx="30" cy="30" r="30" fill="#E7F2E3"/>
<g clip-path="url(#clip0_2101_16713)">
<path d="M30.8483 18.9097C32.4636 18.9097 33.8098 17.5666 33.8098 15.9549C33.8098 14.3431 32.5021 13 30.8483 13C29.1944 13 27.8867 14.3431 27.8867 15.9549C27.8867 17.5666 29.2329 18.9097 30.8483 18.9097Z" fill="#212322" fill-opacity="0.3"/>
<path d="M38.925 29.5011C38.8096 29.1174 38.5404 28.8104 38.1942 28.6185L35.2711 27.0835L32.5019 21.5576C32.5019 21.5576 32.5019 21.5192 32.4634 21.5192C32.0019 20.6366 31.1173 20.0609 30.0788 20.0609C29.3865 20.0609 28.6942 20.3296 28.1942 20.8284C28.1557 20.8668 28.1173 20.9052 28.0788 20.9436L23.5788 25.2032C23.3865 25.395 23.2327 25.6253 23.1557 25.8939L21.9634 30.3837C21.7327 31.1896 22.2327 32.0339 23.0404 32.2641C23.1942 32.3025 23.3096 32.3025 23.4634 32.3025C24.1557 32.3025 24.7711 31.842 24.925 31.1896L26.0404 27.1219L27.3481 25.8555V31.6885V31.7269L25.8865 39.0564L21.425 44.1219C21.1173 44.4673 20.9634 44.9278 21.0019 45.3883C21.0404 45.8488 21.2327 46.2709 21.5788 46.5779C21.8865 46.8465 22.3096 47 22.7327 47C23.2327 47 23.6942 46.7697 24.0404 46.386L28.7711 40.9368C28.9634 40.7065 29.1173 40.4379 29.1557 40.1309L29.8096 36.9458L34.6173 46.0406C34.925 46.6162 35.5019 46.9616 36.1557 46.9616C36.425 46.9616 36.7327 46.8849 36.9634 46.7697C37.8096 46.3092 38.1173 45.2731 37.6942 44.4289L32.7327 35.1422V28.8871C32.8865 29.1558 33.1173 29.386 33.3865 29.5395L36.7327 31.3047C36.9634 31.4199 37.1942 31.4966 37.425 31.4966C38.0019 31.4966 38.5019 31.1896 38.7711 30.6907C39.0019 30.307 39.0404 29.8849 38.925 29.5011Z" fill="#212322" fill-opacity="0.3"/>
</g>
<defs>
<clipPath id="clip0_2101_16713">
<rect width="18" height="34" fill="white" transform="translate(21 13)"/>
</clipPath>
</defs>
</svg>
