<svg width="349" height="368" viewBox="0 0 349 368" fill="none" xmlns="http://www.w3.org/2000/svg">
<path d="M315.479 9.79642C318.859 7.35337 315.349 2.37423 309.272 0.382776C303.194 -1.60864 273.308 34.0996 256.87 57.722C240.432 81.3444 207.657 142.366 207.657 142.366C207.657 142.366 202.364 147.068 206.668 135.425C210.972 123.782 218.061 111.337 212.459 90.4855C206.857 69.6339 187.359 57.9301 190.018 41.7672C190.509 39.881 188.43 39.7507 187.976 42.2878C187.522 44.8249 184.784 55.7466 180.686 61.6455C176.588 67.5444 166.172 86.5892 168.379 105.685C170.586 124.782 190.81 138.547 192.839 144.167C196.158 153.343 189.75 154.754 181.196 148.27C172.639 141.798 149.294 112.496 117.191 112.161C85.0871 111.826 86.4448 128.444 57.1062 135.652C27.7646 142.873 7.01999 139.823 3.19635 139.072C-0.624179 138.309 -2.40564 145.157 8.40755 147.265C19.2207 149.372 27.4009 154.322 38.0645 167.948C48.7281 181.574 83.9843 202.52 111.13 191.907C138.276 181.293 180.197 142.7 190.81 161.969C201.422 181.238 147.777 178.493 110.565 206.755C73.3537 235.016 61.8208 274.05 61.9139 301.421C62.007 328.792 88.9239 321.98 63.2955 361.323C58.8084 367.826 64.6441 370.499 69.6791 364.613C74.7141 358.727 77.3918 340.362 111.918 343.072C146.444 345.781 172.045 330.161 185.912 293.248C199.778 256.335 191.035 171.404 204.746 170.392C218.458 169.38 203.088 229.747 211.075 268.42C219.061 307.092 238.546 324.244 258.581 331.752C278.617 339.261 279.071 340.931 284.494 351.526C288.186 357.489 293.714 354.758 290.429 347.233C287.143 339.709 291.353 323.526 300.318 301.295C309.284 279.063 318.782 259.883 302.348 238.432C285.911 216.994 209.807 178.173 218.211 163.197C226.616 148.221 254.049 186.514 288.794 177.339C323.539 168.164 318.423 148.067 331.947 146.044C345.471 144.021 348.389 144.934 348.863 141.478C349.337 138.023 336.284 141.207 328.973 136.727C321.663 132.247 317.098 111.319 286.011 111.287C254.923 111.255 242.912 122.369 231.077 135.182C219.242 147.996 216.693 156.209 211.419 152.567C206.144 148.924 283.848 32.7499 315.497 9.82673L315.479 9.79642Z" fill="#F6FCF4"/>
</svg>
