<svg width="170" height="173" viewBox="0 0 170 173" fill="none" xmlns="http://www.w3.org/2000/svg">
<path d="M110.293 68.5177L101.926 79.9274V81.0683H109.532L118.28 80.688L127.788 67.3767L110.293 68.5177Z" fill="#F99B00"/>
<path d="M152.216 55.5867C152.248 55.5867 152.265 55.6354 152.265 55.7327C152.265 55.8301 152.248 55.8788 152.216 55.8788C151.567 55.8788 151.064 56.1141 150.707 56.5846C150.35 57.039 150.171 57.6962 150.171 58.5562V71.1404C150.171 71.189 150.131 71.2215 150.05 71.2377C149.968 71.254 149.912 71.2458 149.879 71.2134L138.463 57.9477V67.8544C138.463 68.7144 138.634 69.3716 138.975 69.826C139.315 70.2803 139.81 70.5075 140.459 70.5075C140.492 70.5075 140.508 70.5562 140.508 70.6535C140.508 70.7509 140.492 70.7996 140.459 70.7996C140.021 70.7996 139.689 70.7915 139.461 70.7753L138.171 70.7509L136.735 70.7753C136.476 70.7915 136.102 70.7996 135.616 70.7996C135.567 70.7996 135.543 70.7509 135.543 70.6535C135.543 70.5562 135.567 70.5075 135.616 70.5075C136.313 70.5075 136.849 70.2803 137.222 69.826C137.611 69.3716 137.806 68.7144 137.806 67.8544V57.1932C137.352 56.7063 136.938 56.3656 136.565 56.1708C136.208 55.9761 135.835 55.8788 135.445 55.8788C135.413 55.8788 135.396 55.8301 135.396 55.7327C135.396 55.6354 135.413 55.5867 135.445 55.5867L136.419 55.611C136.63 55.6272 136.93 55.6354 137.319 55.6354L138.877 55.611C139.072 55.5948 139.307 55.5867 139.583 55.5867C139.713 55.5867 139.81 55.6191 139.875 55.684C139.94 55.7489 140.037 55.8788 140.167 56.0735L140.751 56.8524L149.514 67.1728V58.5562C149.514 57.6962 149.344 57.039 149.003 56.5846C148.662 56.1141 148.175 55.8788 147.542 55.8788C147.51 55.8788 147.494 55.8301 147.494 55.7327C147.494 55.6354 147.51 55.5867 147.542 55.5867L148.54 55.611C149.06 55.6435 149.49 55.6597 149.831 55.6597C150.155 55.6597 150.593 55.6435 151.145 55.611L152.216 55.5867Z" fill="#575757"/>
<path d="M28.13 112.47C28.13 113.071 28.276 113.606 28.5681 114.077C28.8764 114.531 29.2496 114.929 29.6878 115.269C30.1421 115.61 30.7506 116.016 31.5133 116.487C32.3409 117.006 32.99 117.452 33.4606 117.825C33.9474 118.198 34.3531 118.661 34.6776 119.213C35.0184 119.748 35.1888 120.381 35.1888 121.111C35.1888 121.939 34.9697 122.677 34.5316 123.326C34.1097 123.975 33.5011 124.486 32.706 124.86C31.9271 125.217 31.0346 125.395 30.0285 125.395C29.347 125.395 28.6411 125.306 27.9109 125.127C27.1969 124.949 26.6533 124.73 26.2801 124.47C26.134 124.373 26.0529 124.219 26.0367 124.008L25.8906 120.308V120.284C25.8906 120.219 25.9312 120.186 26.0123 120.186C26.0935 120.17 26.1421 120.194 26.1584 120.259C26.6939 121.606 27.3024 122.71 27.9839 123.57C28.6817 124.43 29.5661 124.86 30.6371 124.86C31.3348 124.86 31.919 124.673 32.3896 124.3C32.8602 123.91 33.0955 123.269 33.0955 122.377C33.0955 121.663 32.9332 121.038 32.6087 120.503C32.3003 119.967 31.9109 119.521 31.4403 119.164C30.9859 118.807 30.3612 118.369 29.5661 117.85C28.7872 117.347 28.1786 116.925 27.7405 116.584C27.3024 116.227 26.9292 115.797 26.6208 115.294C26.3125 114.775 26.1584 114.174 26.1584 113.493C26.1584 112.649 26.3937 111.935 26.8643 111.351C27.3348 110.766 27.9434 110.336 28.6898 110.061C29.4525 109.768 30.2476 109.622 31.0752 109.622C31.6269 109.622 32.1786 109.679 32.7304 109.793C33.2821 109.89 33.7446 110.02 34.1178 110.182C34.3612 110.28 34.4829 110.434 34.4829 110.645L34.5559 113.955C34.5559 114.004 34.5072 114.036 34.4099 114.052C34.3287 114.069 34.28 114.052 34.2638 114.004C33.9393 113.014 33.5011 112.121 32.9494 111.326C32.4139 110.515 31.6026 110.109 30.5154 110.109C29.7851 110.109 29.201 110.32 28.7628 110.742C28.3409 111.164 28.13 111.74 28.13 112.47Z" fill="#575757"/>
<path d="M70.4352 26.6453C70.4676 26.6453 70.4839 26.6939 70.4839 26.7913C70.4839 26.8887 70.4676 26.9374 70.4352 26.9374C69.851 26.9374 69.3155 27.1564 68.8287 27.5945C68.3419 28.0327 67.9362 28.6655 67.6117 29.4931L62.8896 41.8338C62.8734 41.8988 62.7841 41.9312 62.6218 41.9312C62.4596 41.9312 62.3703 41.8988 62.3541 41.8338L59.2141 35.1158L56.6584 41.8338C56.6421 41.8988 56.5529 41.9312 56.3906 41.9312C56.2284 41.9312 56.1391 41.8988 56.1229 41.8338L49.9647 28.6655C49.6239 27.9515 49.3318 27.4891 49.0884 27.2781C48.8612 27.0509 48.5124 26.9374 48.0418 26.9374C47.9931 26.9374 47.9688 26.8887 47.9688 26.7913C47.9688 26.6939 47.9931 26.6453 48.0418 26.6453L48.6746 26.6696C49.0316 26.7021 49.4373 26.7183 49.8917 26.7183C50.8004 26.7183 51.628 26.7021 52.3744 26.6696C52.6016 26.6534 52.8856 26.6453 53.2263 26.6453C53.275 26.6453 53.2994 26.6939 53.2994 26.7913C53.2994 26.8887 53.275 26.9374 53.2263 26.9374C52.7882 26.9374 52.4718 26.986 52.277 27.0834C52.0986 27.1645 52.0093 27.3268 52.0093 27.5702C52.0093 27.8461 52.1553 28.3004 52.4474 28.9333L57.0965 38.8399L58.849 34.3126L56.1959 28.6655C55.9038 28.0651 55.6279 27.627 55.3683 27.3511C55.1249 27.0753 54.8328 26.9374 54.4921 26.9374C54.4434 26.9374 54.419 26.8887 54.419 26.7913C54.419 26.6939 54.4434 26.6453 54.4921 26.6453L55.0762 26.6696C55.4332 26.7021 55.7902 26.7183 56.1472 26.7183C56.9099 26.7183 57.5833 26.7021 58.1675 26.6696C58.3298 26.6534 58.5407 26.6453 58.8004 26.6453C58.849 26.6453 58.8734 26.6939 58.8734 26.7913C58.8734 26.8887 58.849 26.9374 58.8004 26.9374C58.5407 26.9374 58.3541 26.9698 58.2405 27.0347C58.1432 27.0834 58.0945 27.1808 58.0945 27.3268C58.0945 27.5864 58.2892 28.1219 58.6786 28.9333L59.993 31.7081L60.8693 29.3958C61.1614 28.6331 61.3074 28.057 61.3074 27.6676C61.3074 27.1808 61.064 26.9374 60.5772 26.9374C60.5285 26.9374 60.5042 26.8887 60.5042 26.7913C60.5042 26.6939 60.5285 26.6453 60.5772 26.6453C60.7233 26.6453 60.8936 26.6615 61.0884 26.6939C61.2831 26.7102 61.6401 26.7183 62.1594 26.7183C62.4515 26.7183 62.7922 26.7021 63.1817 26.6696L64.131 26.6453C64.1634 26.6453 64.1796 26.6939 64.1796 26.7913C64.1796 26.8887 64.1634 26.9374 64.131 26.9374C63.5792 26.9374 63.0924 27.1402 62.6705 27.5459C62.2486 27.9515 61.8673 28.6006 61.5265 29.4931L60.3582 32.5114L63.3521 38.8399L66.9058 29.5661C67.0681 29.1442 67.1492 28.7467 67.1492 28.3735C67.1492 27.9191 67.0113 27.5702 66.7354 27.3268C66.4758 27.0672 66.1026 26.9374 65.6157 26.9374C65.5671 26.9374 65.5427 26.8887 65.5427 26.7913C65.5427 26.6939 65.5671 26.6453 65.6157 26.6453L66.6867 26.6696C67.2709 26.7021 67.7983 26.7183 68.2689 26.7183C68.5934 26.7183 68.9666 26.7021 69.3885 26.6696L70.4352 26.6453Z" fill="#575757"/>
<path d="M118.205 150.674C118.205 150.641 118.238 150.625 118.303 150.625C118.351 150.625 118.392 150.641 118.424 150.674C118.473 150.69 118.497 150.706 118.497 150.722C118.335 151.956 118.254 153.083 118.254 154.106C118.254 154.236 118.23 154.333 118.181 154.398C118.132 154.447 118.035 154.471 117.889 154.471H107.325C107.276 154.471 107.252 154.422 107.252 154.325C107.252 154.227 107.276 154.179 107.325 154.179C107.877 154.179 108.274 154.138 108.518 154.057C108.777 153.976 108.948 153.822 109.029 153.595C109.126 153.351 109.175 152.986 109.175 152.499V141.23C109.175 140.743 109.126 140.386 109.029 140.159C108.948 139.931 108.777 139.777 108.518 139.696C108.258 139.599 107.86 139.55 107.325 139.55C107.276 139.55 107.252 139.501 107.252 139.404C107.252 139.307 107.276 139.258 107.325 139.258H117.451C117.613 139.258 117.694 139.331 117.694 139.477L117.743 142.641C117.743 142.674 117.694 142.698 117.597 142.714C117.516 142.731 117.467 142.714 117.451 142.666C117.061 140.816 115.933 139.891 114.067 139.891H113.094C112.51 139.891 112.096 139.996 111.852 140.207C111.609 140.418 111.487 140.775 111.487 141.278V146.244H113.824C115.609 146.244 116.501 145.643 116.501 144.442C116.501 144.394 116.542 144.369 116.623 144.369C116.72 144.369 116.769 144.394 116.769 144.442L116.745 146.56L116.769 147.704C116.802 148.223 116.818 148.645 116.818 148.97C116.818 149.002 116.769 149.019 116.672 149.019C116.574 149.019 116.526 149.002 116.526 148.97C116.526 147.574 115.617 146.877 113.8 146.877H111.487V152.402C111.487 152.937 111.585 153.311 111.779 153.522C111.99 153.733 112.355 153.838 112.875 153.838H114.067C116.242 153.838 117.621 152.783 118.205 150.674Z" fill="#575757"/>
<path d="M72.8692 130.776C72.658 129.688 72.4823 128.838 72.358 128.004C71.8628 125.01 71.4017 121.999 70.9234 118.954C70.8528 118.563 70.8164 118.155 70.8828 117.779C70.9651 117.182 70.7408 116.826 70.2261 116.577C67.686 115.139 65.4179 113.392 63.4388 111.283C62.9742 110.794 62.546 110.714 61.8452 110.858C60.4778 111.129 59.0754 111.246 57.6893 111.227C53.9765 111.285 50.2119 111.241 46.516 111.248C45.4038 111.26 44.2744 111.238 43.008 111.201C43.2114 110.841 43.3297 110.567 43.4826 110.361C46.6077 106.033 49.6987 101.722 52.8584 97.461C53.3002 96.8938 53.8622 96.3935 54.4587 95.961C54.8678 95.6668 55.0543 95.358 54.966 94.8478C54.368 91.8213 54.3173 88.7717 54.6089 85.7183C54.6417 85.4453 54.5029 85.089 54.3136 84.8866C52.5934 83.2015 50.805 81.5512 49.0848 79.8661C47.8807 78.6865 46.6934 77.4557 45.472 76.2422C45.2313 76.0233 45.0415 75.7357 44.7316 75.3813C45.1075 75.2749 45.3464 75.153 45.6199 75.0989C49.2612 74.4796 52.8856 73.9115 56.5101 73.3435C56.9032 73.271 57.2964 73.1985 57.6732 73.2625C58.3239 73.3576 58.6988 73.0809 59.021 72.532C60.4962 70.028 62.2462 67.7254 64.3744 65.7425C64.834 65.2944 64.8831 64.8849 64.777 64.2556C64.5476 62.9631 64.4033 61.5844 64.3792 60.2726C64.3712 55.6208 64.4147 50.9854 64.4582 46.3501C64.4227 46.1119 64.4555 45.8389 64.5046 45.4294C64.865 45.6299 65.1394 45.7462 65.3456 45.8973C69.6741 48.9851 74.0027 52.0729 78.3144 55.212C78.8641 55.615 79.3292 56.1892 79.7429 56.747C80.0187 57.1188 80.2935 57.3203 80.7891 57.1956C83.8488 56.6167 86.9454 56.5316 90.0439 56.7872C90.3178 56.8183 90.6595 56.7293 90.8297 56.5571C92.0037 55.3173 93.1431 54.0097 94.3344 52.8039C96.053 51.0299 97.8404 49.3062 99.6278 47.5826C99.8321 47.3929 100.139 47.2362 100.412 47.0969C100.516 47.3854 100.655 47.6565 100.725 47.9625C101.292 51.5176 101.876 55.1066 102.442 58.6618C102.46 58.866 102.427 59.0538 102.48 59.2407C102.795 60.5323 102.848 60.9747 103.809 61.5094C106.161 62.8298 108.206 64.5624 110.065 66.5186C110.461 66.9573 110.837 67.0214 111.435 66.8444C112.341 66.5959 113.247 66.4326 114.188 66.4222C119.338 66.3998 124.506 66.4112 129.639 66.44C129.844 66.4207 130.05 66.4866 130.375 66.5341C130.223 66.8255 130.156 67.0307 130.02 67.1856C127.523 70.638 125.043 74.0392 122.546 77.4916C121.918 78.3675 121.307 79.2774 120.644 80.0855C120.134 80.6875 119.589 81.2218 118.976 81.7056C118.584 82.0337 118.346 82.326 118.451 82.8701C119.032 85.8627 119.066 88.8784 118.808 91.9144C118.775 92.1874 118.88 92.5611 119.052 92.7296C120.308 93.9257 121.614 95.053 122.835 96.2664C124.556 97.9516 126.259 99.688 127.945 101.39C128.152 101.627 128.358 101.863 128.617 102.201C128.207 102.325 127.916 102.43 127.591 102.468C123.984 103.07 120.377 103.672 116.753 104.24C116.394 104.295 116.017 104.316 115.675 104.32C114.751 104.279 114.632 104.468 114.31 105.016C112.852 107.554 111.051 109.84 108.888 111.841C108.446 112.238 108.396 112.647 108.537 113.259C108.783 114.585 108.928 115.964 108.935 117.327C108.942 121.894 108.864 126.461 108.838 131.045C108.822 131.352 108.807 131.659 108.792 132.136C108.449 131.97 108.226 131.87 108.037 131.753C103.64 128.615 99.2428 125.476 94.8796 122.321C94.3299 121.918 93.9162 121.36 93.5026 120.802C93.2268 120.431 92.9178 120.246 92.4564 120.354C89.3967 120.933 86.3173 121.052 83.2016 120.762C82.9791 120.748 82.6032 120.854 82.433 121.026C81.259 122.266 80.1197 123.574 78.9284 124.779C77.1924 126.52 75.4392 128.226 73.7033 129.966C73.4994 130.241 73.2951 130.43 72.8692 130.776ZM73.7642 96.7884C73.696 96.8232 73.5085 96.9616 73.3898 97.1503C72.2176 98.7309 71.0969 100.328 69.9762 101.925C69.8742 102.062 69.8934 102.437 70.014 102.589C72.1496 105.173 74.7439 107.138 77.8142 108.518C82.3593 110.513 87.0323 110.82 91.8344 109.694C92.2616 109.604 92.3804 109.415 92.3781 108.989C92.368 107.115 92.3921 105.223 92.4334 103.365C92.4493 103.144 92.4138 102.905 92.3273 102.736C91.3089 101.077 90.1539 99.4881 88.5393 98.3471C83.97 95.0404 79.0737 94.5489 73.7642 96.7884ZM78.7344 76.0132C78.6998 75.9454 78.5619 75.7595 78.373 75.6423C76.8099 74.5178 75.2468 73.3933 73.6154 72.3036C73.4265 72.1864 72.9819 72.2424 72.8286 72.3634C70.2904 74.4701 68.2851 77.0311 66.9155 80.0792C64.9208 84.5997 64.5182 89.2901 65.656 94.0488C65.7612 94.5077 65.95 94.6249 66.3951 94.6541C68.2772 94.6334 70.1424 94.6641 71.9904 94.6608C72.247 94.658 72.4864 94.6213 72.6911 94.5168C74.3625 93.4931 75.9133 92.3173 77.0854 90.7368C80.449 86.2013 80.9361 81.3396 78.7344 76.0132ZM100.537 83.0839C98.9175 84.1241 97.435 85.265 96.3139 86.7768C93.1878 90.9348 92.4253 95.5099 94.1288 100.45C94.3372 101.027 94.5976 101.706 95.0271 102.042C96.4706 103.185 98.0333 104.224 99.5277 105.298C99.8713 105.55 100.145 105.581 100.486 105.236C101.489 104.169 102.596 103.22 103.497 102.119C107.865 96.6013 109.132 90.4018 107.607 83.6197C107.502 83.1607 107.313 82.9583 106.817 82.9979C105.02 83.0176 103.206 83.0034 101.358 83.0067C101.084 82.9756 100.811 83.0297 100.537 83.0839ZM99.5672 80.8453C99.6523 80.7591 99.8907 80.552 100.044 80.3459C101.08 78.9202 102.099 77.4606 103.152 76.0688C103.543 75.5703 103.473 75.2644 103.077 74.8257C100.099 71.5186 96.5443 69.1891 92.1749 68.0442C88.6109 67.1292 85.0692 67.1851 81.4803 67.9913C81.053 68.0812 80.866 68.3048 80.8856 68.7646C80.9125 70.5876 80.8711 72.4454 80.8466 74.2519C80.848 74.5075 80.8494 74.7631 80.9873 74.949C82.0058 76.6078 83.1434 78.1629 84.7239 79.3213C89.2759 82.5941 94.1895 83.1195 99.5672 80.8453ZM103.329 80.2927C103.654 80.3403 103.86 80.4062 104.031 80.4043C107.778 80.4143 111.543 80.4581 115.29 80.3829C116.573 80.3688 117.682 79.7602 118.429 78.6955C120.603 75.7067 122.777 72.7179 124.934 69.6952C125.07 69.5403 125.137 69.3351 125.29 69.0437C124.879 68.9971 124.605 68.9661 124.314 68.9863C120.96 68.989 117.607 68.9918 114.236 68.9607C112.593 68.9446 111.14 69.3014 110.122 70.761C108.016 73.715 105.841 76.6186 103.718 79.5387C103.617 79.7613 103.515 79.984 103.329 80.2927ZM95.1474 105.312C95.081 105.688 95.0136 105.893 95.0146 106.063C94.9665 109.847 94.9184 113.63 94.9559 117.413C94.9796 118.639 95.5839 119.655 96.5973 120.376C99.5175 122.474 102.455 124.606 105.409 126.687C105.667 126.854 105.941 126.971 106.25 127.155C106.3 126.83 106.333 126.642 106.332 126.472C106.347 122.877 106.362 119.281 106.394 115.719C106.42 114.168 105.831 112.931 104.56 112.042C102.259 110.397 99.957 108.752 97.6553 107.108C96.8821 106.52 96.0921 105.983 95.1474 105.312ZM78.2014 72.3555C78.2496 71.7756 78.2819 71.4174 78.3142 71.0592C78.3309 67.8044 78.3134 64.567 78.3816 61.3286C78.4229 59.4708 77.8331 57.9778 76.27 56.8533C73.4531 54.8735 70.6704 52.8763 67.8363 50.8627C67.6301 50.7116 67.3557 50.5953 67.0126 50.4287C66.9808 50.8721 66.948 51.1451 66.9667 51.4345C66.9336 54.8258 66.9519 58.2336 66.8674 61.6085C66.8093 63.5176 67.6038 64.9061 69.1838 65.9793C71.2275 67.3712 73.2202 68.8318 75.1957 70.2585C76.1404 70.9297 77.0678 71.567 78.2014 72.3555ZM47.9215 108.523C48.418 108.569 48.6751 108.651 48.9317 108.648C52.4565 108.644 55.9814 108.639 59.5062 108.634C61.2345 108.649 62.4795 107.886 63.4646 106.529C65.4007 103.833 67.3027 101.153 69.2388 98.4569C69.4595 98.1307 69.6802 97.8045 70.0028 97.3409C69.5405 97.2778 69.2665 97.2467 68.9758 97.267C65.6562 97.2523 62.3539 97.2715 59.0684 97.2395C57.169 97.2262 55.6319 97.7543 54.5285 99.3852C53.0005 101.617 51.3697 103.816 49.773 105.998C49.1783 106.771 48.6009 107.578 47.9215 108.523Z" fill="#D2CECB"/>
</svg>
