<svg width="91" height="33" viewBox="0 0 91 33" fill="none" xmlns="http://www.w3.org/2000/svg">
<path d="M1.09496 27.6885H1.78066L1.14393 30.3333C1.04598 30.7252 1.07047 31.019 1.19291 31.215C1.31536 31.4109 1.56026 31.5088 1.90311 31.5088C2.24596 31.5088 2.53984 31.4109 2.76024 31.215C2.98065 31.019 3.15207 30.7252 3.22554 30.3333L3.86227 27.6885H4.54798L3.91125 30.3823C3.76431 30.9701 3.51942 31.4109 3.15207 31.7048C2.78473 31.9986 2.31943 32.1456 1.73168 32.1456C1.14393 32.1456 0.752102 31.9986 0.531697 31.7048C0.311291 31.4109 0.286801 30.9701 0.409249 30.3823L1.09496 27.6885Z" fill="#696A6A"/>
<path d="M4.47266 32.0217L5.55019 27.5156L7.60731 30.1605C7.65629 30.234 7.70527 30.3074 7.77874 30.4054C7.82772 30.4789 7.90119 30.5768 7.95017 30.6993L8.66036 27.6871H9.29709L8.21955 32.1931L6.13794 29.4993C6.08896 29.4258 6.03998 29.3523 5.99101 29.2789C5.94203 29.2054 5.89305 29.1074 5.86856 29.034L5.15836 32.0462H4.47266V32.0217Z" fill="#696A6A"/>
<path d="M9.23438 32.0221L10.2629 27.6875H10.9486L9.92008 32.0221H9.23438Z" fill="#696A6A"/>
<path d="M10.9062 32.0221L11.9348 27.6875H14.2858L14.1389 28.2752H12.4736L12.2042 29.3528H13.8695L13.7225 29.965H12.0573L11.5675 31.9977H10.9062V32.0221Z" fill="#696A6A"/>
<path d="M14.0234 32.0221L15.052 27.6875H15.7377L14.7091 32.0221H14.0234Z" fill="#696A6A"/>
<path d="M15.6953 32.0221L16.7239 27.6875H19.0749L18.9279 28.2752H17.2626L16.9933 29.3528H18.6585L18.5116 29.965H16.8463L16.5035 31.3609H18.1688L18.0218 31.9977H15.6953V32.0221Z" fill="#696A6A"/>
<path d="M19.6842 31.3854H20.272C20.5903 31.3854 20.8352 31.3609 21.0066 31.3119C21.1781 31.263 21.325 31.1895 21.4719 31.0915C21.6679 30.9446 21.8148 30.7732 21.9617 30.5773C22.0842 30.3569 22.1821 30.1364 22.2556 29.8426C22.3291 29.5732 22.3291 29.3283 22.3046 29.1079C22.2801 28.8875 22.2066 28.7161 22.0597 28.5936C21.9617 28.4957 21.8393 28.4222 21.6923 28.3732C21.5454 28.3242 21.276 28.2997 20.9332 28.2997H20.6883H20.4434L19.6842 31.3854ZM18.8516 32.0221L19.8801 27.6875H20.8107C21.423 27.6875 21.8393 27.712 22.0597 27.7855C22.2801 27.8589 22.476 27.9569 22.6229 28.1038C22.8189 28.2997 22.9413 28.5446 22.9903 28.8385C23.0393 29.1324 23.0148 29.4752 22.9413 29.8671C22.8434 30.2589 22.6964 30.6018 22.5005 30.8956C22.3046 31.1895 22.0597 31.4344 21.7658 31.6303C21.5454 31.7772 21.3005 31.8752 21.0556 31.9487C20.8107 32.0221 20.4189 32.0466 19.9291 32.0466H19.7332H18.8516V32.0221Z" fill="#696A6A"/>
<path d="M26.293 29.5007H26.4644C26.8562 29.5007 27.1011 29.4517 27.2481 29.3783C27.395 29.3048 27.493 29.1334 27.542 28.9374C27.5909 28.717 27.5664 28.5456 27.444 28.4477C27.3215 28.3497 27.1011 28.3007 26.7338 28.3007H26.5624L26.293 29.5007ZM26.1216 30.0884L25.6563 32.0231H25.0195L26.0481 27.6885H27.0767C27.395 27.6885 27.6154 27.713 27.7379 27.7375C27.8848 27.7619 27.9828 27.8354 28.0807 27.9089C28.1787 28.0068 28.2521 28.1538 28.3011 28.3252C28.3256 28.4966 28.3256 28.6925 28.2766 28.8885C28.2277 29.0844 28.1542 29.2803 28.0317 29.4517C27.9093 29.6231 27.7868 29.7701 27.6154 29.868C27.493 29.9415 27.346 30.015 27.1991 30.0395C27.0522 30.064 26.8073 30.0884 26.5134 30.0884H26.3665H26.1216Z" fill="#696A6A"/>
<path d="M29.1268 30.3211H30.3023L30.1064 29.3415C30.1064 29.2681 30.0819 29.1946 30.0819 29.1211C30.0819 29.0476 30.0819 28.9497 30.0574 28.8517C30.0084 28.9497 29.9595 29.0232 29.9105 29.1211C29.8615 29.1946 29.8125 29.2681 29.788 29.3415L29.1268 30.3211ZM30.6207 32.0354L30.4003 30.9088H28.735L27.9758 32.0354H27.2656L30.4003 27.5293L31.3554 32.0354H30.6207Z" fill="#696A6A"/>
<path d="M32.3293 32.0221L32.7946 30.0385L31.9375 27.6875H32.6477L33.1865 29.1569C33.1865 29.2058 33.211 29.2548 33.2354 29.3038C33.2599 29.3528 33.2599 29.4263 33.2844 29.4997C33.3334 29.4263 33.3824 29.3773 33.4069 29.3038C33.4558 29.2548 33.5048 29.1814 33.5293 29.1324L34.7783 27.6875H35.464L33.4558 30.0385L32.9905 32.0221H32.3293Z" fill="#696A6A"/>
<path d="M38.8836 29.8774C38.8836 29.8529 38.8836 29.755 38.9081 29.6081C38.9326 29.4856 38.9326 29.3876 38.9326 29.2897C38.8836 29.3876 38.8346 29.4856 38.7857 29.5836C38.7367 29.6815 38.6632 29.7795 38.5897 29.8774L36.9245 32.1794L36.3857 29.8285C36.3612 29.7305 36.3367 29.6325 36.3367 29.5591C36.3367 29.4611 36.3122 29.3876 36.3122 29.2897C36.2877 29.3876 36.2632 29.4856 36.2143 29.5836C36.1898 29.6815 36.1408 29.7795 36.0918 29.9019L35.1367 32.0325H34.5L36.5816 27.502L37.1694 30.2448C37.1694 30.2938 37.1938 30.3672 37.1938 30.4652C37.2183 30.5631 37.2183 30.6856 37.2428 30.8325C37.3163 30.7101 37.4143 30.5387 37.5367 30.3672C37.5612 30.3182 37.6102 30.2693 37.6102 30.2448L39.4714 27.502L39.4224 32.0325H38.7857L38.8836 29.8774Z" fill="#696A6A"/>
<path d="M40.0234 32.0221L41.052 27.6875H43.403L43.2561 28.2752H41.5908L41.3214 29.3528H42.9867L42.8397 29.965H41.1744L40.8316 31.3609H42.4969L42.3499 31.9977H40.0234V32.0221Z" fill="#696A6A"/>
<path d="M43.1719 32.0217L44.2494 27.5156L46.3065 30.1605C46.3555 30.234 46.4045 30.3074 46.478 30.4054C46.5269 30.4789 46.6004 30.5768 46.6494 30.6993L47.3596 27.6871H47.9963L46.9188 32.1931L44.8372 29.4993C44.7882 29.4258 44.7392 29.3523 44.6902 29.2789C44.6412 29.2054 44.5923 29.1074 44.5678 29.034L43.8576 32.0462H43.1719V32.0217Z" fill="#696A6A"/>
<path d="M50.1794 28.2909L49.2733 32.0378H48.5876L49.4937 28.2909H48.3672L48.5141 27.7031H51.4529L51.3059 28.2909H50.1794Z" fill="#696A6A"/>
<path d="M50.8906 31.1516L51.5029 30.8823C51.5029 31.0782 51.5763 31.2251 51.6743 31.3231C51.7967 31.421 51.9437 31.47 52.1641 31.47C52.36 31.47 52.5559 31.421 52.7028 31.2986C52.8498 31.1761 52.9477 31.0292 52.9967 30.8333C53.0457 30.5884 52.8988 30.3435 52.5314 30.1476C52.4824 30.1231 52.4335 30.0986 52.409 30.0741C51.9927 29.8292 51.7478 29.6333 51.6253 29.4374C51.5274 29.2415 51.5029 29.0211 51.5518 28.7517C51.6253 28.4088 51.8212 28.1149 52.1151 27.8945C52.409 27.6741 52.7273 27.5762 53.1192 27.5762C53.4375 27.5762 53.6824 27.6496 53.8539 27.7721C54.0253 27.8945 54.1477 28.066 54.1722 28.3109L53.56 28.6047C53.511 28.4578 53.4375 28.3598 53.3641 28.3109C53.2661 28.2374 53.1681 28.2129 53.0457 28.2129C52.8498 28.2129 52.7028 28.2619 52.5804 28.3598C52.458 28.4578 52.36 28.5802 52.311 28.7517C52.2375 29.0211 52.4335 29.2659 52.8498 29.4864C52.8743 29.5108 52.8988 29.5108 52.9233 29.5353C53.2906 29.7312 53.5355 29.9272 53.6335 30.1231C53.7559 30.319 53.7559 30.5394 53.7069 30.8333C53.609 31.2496 53.413 31.568 53.0947 31.8129C52.7763 32.0578 52.409 32.1802 51.9927 32.1802C51.6253 32.1802 51.3559 32.1067 51.16 31.9353C50.9886 31.7149 50.8906 31.47 50.8906 31.1516Z" fill="#696A6A"/>
<path d="M55.9688 32.0221L56.9973 27.6875H57.683L56.6545 32.0221H55.9688Z" fill="#696A6A"/>
<path d="M57.6406 32.0217L58.7182 27.5156L60.7753 30.1605C60.8243 30.234 60.8732 30.3074 60.9467 30.4054C60.9957 30.4789 61.0692 30.5768 61.1181 30.6993L61.8283 27.6871H62.4651L61.3875 32.1931L59.3059 29.4993C59.2569 29.4258 59.208 29.3523 59.159 29.2789C59.11 29.2054 59.061 29.1074 59.0365 29.034L58.3263 32.0462H57.6406V32.0217Z" fill="#696A6A"/>
<path d="M64.6482 28.2909L63.742 32.0378H63.0563L63.9625 28.2909H62.8359L62.9829 27.7031H65.9216L65.7747 28.2909H64.6482Z" fill="#696A6A"/>
<path d="M65.3984 32.0221L66.427 27.6875H68.778L68.6311 28.2752H66.9658L66.6964 29.3528H68.3617L68.2147 29.965H66.5494L66.2066 31.3609H67.8719L67.7249 31.9977H65.3984V32.0221Z" fill="#696A6A"/>
<path d="M69.8281 29.5389H69.9506C70.3179 29.5389 70.5628 29.49 70.7098 29.4165C70.8567 29.3185 70.9547 29.1716 71.0036 28.9512C71.0526 28.7063 71.0281 28.5349 70.9302 28.4369C70.8322 28.339 70.6118 28.29 70.2445 28.29H70.122L69.8281 29.5389ZM69.6567 30.0777L69.1914 32.0124H68.5547L69.5832 27.6777H70.5383C70.8077 27.6777 71.0281 27.7022 71.1751 27.7267C71.322 27.7757 71.4444 27.8247 71.5179 27.9226C71.6159 28.0206 71.6893 28.1675 71.7138 28.339C71.7383 28.5104 71.7383 28.6818 71.6893 28.8777C71.6159 29.2206 71.4689 29.49 71.2485 29.6859C71.0281 29.8818 70.7587 30.0042 70.4404 30.0287L71.42 32.0124H70.6363L69.7057 30.0777H69.6567Z" fill="#696A6A"/>
<path d="M71.8555 32.0221L72.884 27.6875H75.235L75.0881 28.2752H73.4228L73.1534 29.3528H74.8187L74.6718 29.965H73.0065L72.5167 31.9977H71.8555V32.0221Z" fill="#696A6A"/>
<path d="M76.0487 30.3211H77.2242L77.0283 29.3415C77.0283 29.2681 77.0038 29.1946 77.0038 29.1211C77.0038 29.0476 77.0038 28.9497 76.9793 28.8517C76.9303 28.9497 76.8813 29.0232 76.8324 29.1211C76.7834 29.1946 76.7344 29.2681 76.7099 29.3415L76.0487 30.3211ZM77.5426 32.0354L77.3222 30.9088H75.6569L74.8977 32.0354H74.1875L77.3222 27.5293L78.2772 32.0354H77.5426Z" fill="#696A6A"/>
<path d="M82.7386 28.7401C82.5916 28.5687 82.4202 28.4462 82.2243 28.3483C82.0284 28.2748 81.808 28.2258 81.5631 28.2258C81.0978 28.2258 80.6815 28.3728 80.3386 28.6911C79.9713 28.985 79.7264 29.3768 79.6284 29.8666C79.506 30.3319 79.5549 30.7238 79.7753 31.0176C79.9957 31.3115 80.3141 31.4829 80.7304 31.4829C80.9753 31.4829 81.2202 31.4339 81.4896 31.336C81.7345 31.238 81.9794 31.1156 82.2488 30.9197L82.0529 31.7278C81.8325 31.8748 81.6121 31.9727 81.3672 32.0217C81.1223 32.0952 80.9019 32.1197 80.6325 32.1197C80.3141 32.1197 80.0202 32.0707 79.7753 31.9482C79.5304 31.8503 79.3345 31.6788 79.1631 31.4584C79.0162 31.2625 78.9182 31.0176 78.8692 30.7238C78.8203 30.4544 78.8447 30.136 78.9182 29.8176C78.9917 29.4993 79.1141 29.2054 79.31 28.9115C79.4815 28.6421 79.7019 28.3972 79.9713 28.1768C80.2406 27.9564 80.51 27.8095 80.8039 27.6871C81.0978 27.5891 81.4161 27.5156 81.7345 27.5156C81.9794 27.5156 82.1998 27.5646 82.4202 27.6381C82.6161 27.7115 82.812 27.834 82.9835 27.9809L82.7386 28.7401Z" fill="#696A6A"/>
<path d="M82.8047 32.0221L83.8332 27.6875H86.1842L86.0373 28.2752H84.372L84.1026 29.3528H85.7679L85.621 29.965H83.9557L83.6128 31.3609H85.2781L85.1312 31.9977H82.8047V32.0221Z" fill="#696A6A"/>
<path d="M70.2733 23.9237H65.5469L72.1101 0.193359H76.8365L70.2733 23.9237Z" fill="#66686C"/>
<path d="M67.8227 0.951332C67.5044 0.510521 66.9901 0.265625 66.3044 0.265625H40.3455L39.0475 4.91863H43.774H62.6799L61.3085 9.89H42.4026H37.6761L33.7578 24.0449H38.4843L41.1047 14.543H62.3371C62.9983 14.543 63.635 14.3226 64.2228 13.8573C64.8105 13.4165 65.2023 12.8532 65.3738 12.1675L67.9941 2.6656C68.2146 1.97989 68.1411 1.39214 67.8227 0.951332Z" fill="#66686C"/>
<path d="M31.0068 22.4414C30.7375 23.372 29.8803 24.0332 28.9252 24.0332H4.55817C3.89695 24.0332 3.40716 23.8128 3.06431 23.3475C2.74595 22.9067 2.67248 22.3434 2.84391 21.6577L8.79486 0.253906H13.5213L8.2316 19.3802H27.1375L32.4517 0.253906H37.1782L31.0068 22.4414Z" fill="#66686C"/>
<path d="M84.9978 0.236328L90.9733 12.1382L78.4102 24.0156L84.9978 0.236328Z" fill="#27803B"/>
<path d="M80.8064 0.236328L86.7819 12.1382L74.2188 24.0156L80.8064 0.236328Z" fill="#E9661C"/>
</svg>
