<svg width="64" height="90" viewBox="0 0 64 90" fill="none" xmlns="http://www.w3.org/2000/svg">
<path d="M15.2277 63.8528C17.864 63.8528 19.9611 64.7224 21.5189 66.4617C23.0768 68.0768 23.8557 70.313 23.8557 73.1704C23.8557 76.2762 22.897 78.6988 20.9797 80.4381C19.1822 82.0531 16.6657 82.8607 13.4302 82.8607C9.47571 82.8607 6.36005 81.3077 4.08322 78.2019C1.80638 74.9718 0.667969 70.4372 0.667969 64.5982C0.667969 59.1319 1.80638 54.1004 4.08322 49.5037C6.47988 44.907 9.95504 40.3104 14.5087 35.7137C14.6285 35.5895 14.8083 35.5273 15.0479 35.5273C15.4074 35.5273 15.707 35.7137 15.9467 36.0864C16.1864 36.4591 16.1864 36.7697 15.9467 37.0182C10.0749 43.2299 7.13896 50.5597 7.13896 59.0077C7.13896 62.4862 7.73813 65.033 8.93646 66.6481C10.015 64.7845 12.112 63.8528 15.2277 63.8528ZM44.7067 63.8528C47.343 63.8528 49.4401 64.7224 50.9979 66.4617C52.5557 68.0768 53.3346 70.313 53.3346 73.1704C53.3346 76.2762 52.376 78.6988 50.4586 80.4381C48.6611 82.0531 46.1447 82.8607 42.9092 82.8607C38.9547 82.8607 35.839 81.3077 33.5622 78.2019C31.2853 74.9718 30.1469 70.4372 30.1469 64.5982C30.1469 59.1319 31.2853 54.1004 33.5622 49.5037C35.9588 44.907 39.434 40.3104 43.9877 35.7137C44.1075 35.5895 44.2872 35.5273 44.5269 35.5273C44.8864 35.5273 45.186 35.7137 45.4256 36.0864C45.6653 36.4591 45.6653 36.7697 45.4256 37.0182C39.5538 43.2299 36.6179 50.5597 36.6179 59.0077C36.6179 62.4862 37.2171 65.033 38.4154 66.6481C39.4939 64.7845 41.591 63.8528 44.7067 63.8528Z" fill="#C9DCC2"/>
</svg>
