<svg width="60" height="60" viewBox="0 0 60 60" fill="none" xmlns="http://www.w3.org/2000/svg">
<circle cx="30" cy="30" r="30" fill="#155915"/>
<path d="M40.9558 35.0414C41.0668 34.6195 40.9555 34.4706 40.7694 34.4137C39.7894 33.8194 39.1361 33.1518 38.4438 32.1646C37.8863 31.0181 37.5882 30.6607 37.6283 29.0447C37.5908 28.2659 37.689 27.4872 38.0244 26.7084C38.4194 25.9093 38.7807 25.2367 39.5249 24.7708L40.238 24.1478C40.4103 24.0201 40.4101 23.7663 40.322 23.5932C39.7005 22.9617 39.1981 22.3135 38.0804 21.7516C37.6276 21.4939 36.9442 21.2945 36.0437 21.2568C35.408 21.2571 34.7913 21.2387 34.0118 21.3803C33.3873 21.4803 32.7348 21.6886 32.1104 22.0034L31.2108 22.425C30.6403 22.5623 30.1224 22.4929 29.6263 22.3377L27.9625 21.6462C27.3835 21.4366 26.7056 21.3241 25.9026 21.3347C25.1098 21.3324 24.3242 21.365 23.605 21.7241C23.0348 21.9944 22.5161 22.3152 22.0204 22.6586C21.4329 23.1974 20.8753 23.7655 20.4359 24.4499C20.0974 24.8796 19.8577 25.5729 19.5924 26.2183C19.3501 26.8643 19.2392 27.3424 19.1402 27.9269C18.9668 29.057 18.9875 29.7433 19.0282 30.6023C19.1137 32.073 19.3278 32.608 19.4851 33.4839C19.6746 34.2277 19.9357 34.8305 20.1982 35.4308C20.4648 36.1565 20.8975 36.8005 21.3074 37.4557C21.6681 38.1363 22.2317 38.8835 22.8127 39.6363C23.3148 40.1816 23.5475 40.5945 24.5045 41.2671C25.1463 41.6611 25.2411 41.7378 25.5857 41.8948C25.9029 41.9724 26.2309 42.0394 26.6949 41.9727C26.9965 41.9099 27.2794 41.8653 27.7248 41.6612C28.0417 41.5314 28.3586 41.4016 28.6756 41.2718C29.0299 41.116 29.3772 40.9603 30.0224 40.8045C30.445 40.75 30.8675 40.7084 31.2901 40.7266C31.5557 40.7223 31.9978 40.8222 32.6369 41.0381C33.0343 41.1687 33.252 41.1816 34.063 41.5833C34.4071 41.6932 34.6265 41.8848 35.1722 41.8626C35.6966 41.7917 36.1919 41.6096 36.5703 41.3953C36.9883 41.0945 37.4811 40.8672 37.7635 40.4332C38.1046 40.1206 38.305 39.877 38.4998 39.6363L39.4505 38.2345C39.7552 37.8778 40.0311 37.4643 40.2612 36.9609C40.5389 36.3664 40.7518 35.7083 40.9558 35.0414Z" fill="#E7F2E3"/>
<path d="M29.9804 20.8812C29.9887 21.1925 30.1881 21.0995 30.2997 21.14C30.7197 21.1868 30.9258 21.0759 31.2108 21.0232C31.7622 20.8678 31.9749 20.7541 32.2408 20.6338C32.5445 20.4562 32.8482 20.3281 33.1519 20.0497C33.4384 19.845 33.6201 19.6703 33.865 19.3877C34.1889 19.0606 34.2974 18.906 34.5384 18.57C34.8065 18.1858 34.9345 17.9301 35.1326 17.5186C35.2654 17.188 35.4256 16.8709 35.4891 16.5062C35.5592 16.1772 35.6481 15.8575 35.6476 15.4938C35.6698 15.3161 35.6189 15.2104 35.5683 15.1044C35.3682 14.9883 35.2651 14.9921 35.0322 15.0084C34.7594 15.0096 34.4103 15.0508 34.0234 15.2212C33.5974 15.4136 33.1898 15.6181 32.8746 15.8832C32.5379 16.0908 32.3096 16.2985 32.0823 16.5062C31.8063 16.7541 31.5695 17.0405 31.3297 17.3239C31.0567 17.6441 30.8437 17.922 30.7191 18.2058C30.5508 18.5219 30.4339 18.838 30.2997 19.1541C30.1573 19.4914 30.0482 19.8452 29.9804 20.2192C29.9413 20.4527 29.9515 20.615 29.9804 20.8812Z" fill="#E7F2E3"/>
<path d="M29.9804 20.8812C29.9887 21.1925 30.1881 21.0995 30.2997 21.14C30.7197 21.1868 30.9258 21.0759 31.2108 21.0232C31.7622 20.8678 31.9749 20.7541 32.2408 20.6338C32.5445 20.4562 32.8482 20.3281 33.1519 20.0497C33.4384 19.845 33.6201 19.6703 33.865 19.3877C34.1889 19.0606 34.2974 18.906 34.5384 18.57C34.8065 18.1858 34.9345 17.9301 35.1326 17.5186C35.2654 17.188 35.4256 16.8709 35.4891 16.5062C35.5592 16.1772 35.6481 15.8575 35.6476 15.4938C35.6698 15.3161 35.6189 15.2104 35.5683 15.1044C35.3682 14.9883 35.2651 14.9921 35.0322 15.0084C34.7594 15.0096 34.4103 15.0508 34.0234 15.2212C33.5974 15.4136 33.1898 15.6181 32.8746 15.8832C32.5379 16.0908 32.3096 16.2985 32.0823 16.5062C31.8063 16.7541 31.5695 17.0405 31.3297 17.3239C31.0567 17.6441 30.8437 17.922 30.7191 18.2058C30.5508 18.5219 30.4339 18.838 30.2997 19.1541C30.1573 19.4914 30.0482 19.8452 29.9804 20.2192C29.9413 20.4527 29.9515 20.615 29.9804 20.8812Z" fill="#E7F2E3"/>
<path d="M40.9558 35.0414C41.0668 34.6195 40.9555 34.4706 40.7694 34.4137C39.7894 33.8194 39.1361 33.1518 38.4438 32.1646C37.8863 31.0181 37.5882 30.6607 37.6283 29.0447C37.5908 28.2659 37.689 27.4872 38.0244 26.7084C38.4194 25.9093 38.7807 25.2367 39.5249 24.7708L40.238 24.1478C40.4103 24.0201 40.4101 23.7663 40.322 23.5932C39.7005 22.9617 39.1981 22.3135 38.0804 21.7516C37.6276 21.4939 36.9442 21.2945 36.0437 21.2568C35.408 21.2571 34.7913 21.2387 34.0118 21.3803C33.3873 21.4803 32.7348 21.6886 32.1104 22.0034L31.2108 22.425C30.6403 22.5623 30.1224 22.4929 29.6263 22.3377L27.9625 21.6462C27.3835 21.4366 26.7056 21.3241 25.9026 21.3347C25.1098 21.3324 24.3242 21.365 23.605 21.7241C23.0348 21.9944 22.5161 22.3152 22.0204 22.6586C21.4329 23.1974 20.8753 23.7655 20.4359 24.4499C20.0974 24.8796 19.8577 25.5729 19.5924 26.2183C19.3501 26.8643 19.2392 27.3424 19.1402 27.9269C18.9668 29.057 18.9875 29.7433 19.0282 30.6023C19.1137 32.073 19.3278 32.608 19.4851 33.4839C19.6746 34.2277 19.9357 34.8305 20.1982 35.4308C20.4648 36.1565 20.8975 36.8005 21.3074 37.4557C21.6681 38.1363 22.2317 38.8835 22.8127 39.6363C23.3148 40.1816 23.5475 40.5945 24.5045 41.2671C25.1463 41.6611 25.2411 41.7378 25.5857 41.8948C25.9029 41.9724 26.2309 42.0394 26.6949 41.9727C26.9965 41.9099 27.2794 41.8653 27.7248 41.6612C28.0417 41.5314 28.3586 41.4016 28.6756 41.2718C29.0299 41.116 29.3772 40.9603 30.0224 40.8045C30.445 40.75 30.8675 40.7084 31.2901 40.7266C31.5557 40.7223 31.9978 40.8222 32.6369 41.0381C33.0343 41.1687 33.252 41.1816 34.063 41.5833C34.4071 41.6932 34.6265 41.8848 35.1722 41.8626C35.6966 41.7917 36.1919 41.6096 36.5703 41.3953C36.9883 41.0945 37.4811 40.8672 37.7635 40.4332C38.1046 40.1206 38.305 39.877 38.4998 39.6363L39.4505 38.2345C39.7552 37.8778 40.0311 37.4643 40.2612 36.9609C40.5389 36.3664 40.7518 35.7083 40.9558 35.0414Z" fill="#E7F2E3"/>
<path d="M29.9804 20.8812C29.9887 21.1925 30.1881 21.0995 30.2997 21.14C30.7197 21.1868 30.9258 21.0759 31.2108 21.0232C31.7622 20.8678 31.9749 20.7541 32.2408 20.6338C32.5445 20.4562 32.8482 20.3281 33.1519 20.0497C33.4384 19.845 33.6201 19.6703 33.865 19.3877C34.1889 19.0606 34.2974 18.906 34.5384 18.57C34.8065 18.1858 34.9345 17.9301 35.1326 17.5186C35.2654 17.188 35.4256 16.8709 35.4891 16.5062C35.5592 16.1772 35.6481 15.8575 35.6476 15.4938C35.6698 15.3161 35.6189 15.2104 35.5683 15.1044C35.3682 14.9883 35.2651 14.9921 35.0322 15.0084C34.7594 15.0096 34.4103 15.0508 34.0234 15.2212C33.5974 15.4136 33.1898 15.6181 32.8746 15.8832C32.5379 16.0908 32.3096 16.2985 32.0823 16.5062C31.8063 16.7541 31.5695 17.0405 31.3297 17.3239C31.0567 17.6441 30.8437 17.922 30.7191 18.2058C30.5508 18.5219 30.4339 18.838 30.2997 19.1541C30.1573 19.4914 30.0482 19.8452 29.9804 20.2192C29.9413 20.4527 29.9515 20.615 29.9804 20.8812Z" fill="#E7F2E3"/>
</svg>
