<svg width="60" height="60" viewBox="0 0 60 60" fill="none" xmlns="http://www.w3.org/2000/svg">
<circle cx="30" cy="30" r="30" fill="#E7F2E3"/>
<path fill-rule="evenodd" clip-rule="evenodd" d="M24.9555 40.2859C25.7658 41.0963 27.2515 41.0963 27.9268 40.1508L41.5676 23.2686C42.2429 22.4582 42.1079 21.1077 41.2975 20.4324C40.4872 19.7571 39.1366 19.8921 38.4613 20.7025L26.171 35.964L21.579 31.3721C20.7687 30.5617 19.4181 30.5617 18.6078 31.3721C17.7974 32.1824 17.7974 33.3979 18.6078 34.2083L24.9555 40.2859Z" fill="#212322" fill-opacity="0.3"/>
<path d="M26.1308 35.2168L21.9326 31.0185C20.927 30.0129 19.2598 30.0129 18.2542 31.0185C17.2486 32.0241 17.2486 33.5562 18.2542 34.5618L18.2541 34.5619L18.262 34.5694L24.606 40.6435C25.5935 41.6261 27.4365 41.6791 28.3244 40.4543L41.9543 23.5855C42.807 22.5586 42.6348 20.896 41.6176 20.0483C40.5909 19.1927 38.9257 19.3641 38.0772 20.3824L38.0771 20.3824L38.0719 20.3889L26.1308 35.2168Z" stroke="#212322" stroke-opacity="0.3"/>
</svg>
