<svg width="60" height="60" viewBox="0 0 60 60" fill="none" xmlns="http://www.w3.org/2000/svg">
<circle cx="30" cy="30" r="30" fill="#E7F2E3"/>
<path fill-rule="evenodd" clip-rule="evenodd" d="M23.28 22.2025C23.56 21.5063 24.12 21.0886 24.82 21.0886H35.18C35.88 21.0886 36.58 21.5063 36.72 22.2025L38.4 26.1013C31.96 28.1899 27.34 28.3291 21.46 26.1013L23.28 22.2025ZM18.24 28.4684C16.98 28.7468 16 29.8608 16 31.2532V35.4304C16 36.4051 16.56 37.3797 17.4 37.7975C17.4 37.9367 17.4 38.0759 17.4 38.2152C17.4 41 18.66 41 20.2 41C21.74 41 23 41 23 38.2152H37C37 41 38.26 41 39.8 41C41.34 41 42.6 41 42.6 38.2152C42.6 38.0759 42.6 37.9367 42.6 37.7975C43.44 37.3797 44 36.4051 44 35.4304V31.2532C44 29.8608 43.02 28.7468 41.76 28.4684L38.68 21.3671C38.12 19.9747 36.72 19 35.18 19H24.82C23.28 19 21.88 19.9747 21.32 21.3671L18.24 28.4684ZM20.9 35.4304C22.02 35.4304 23 34.4557 23 33.3418C23 32.2278 22.02 31.2532 20.9 31.2532C19.78 31.2532 18.8 32.0886 18.8 33.2025C18.8 34.3165 19.78 35.4304 20.9 35.4304ZM41.2 33.2025C41.2 34.3165 40.22 35.2911 39.1 35.2911C37.98 35.2911 37 34.4557 37 33.2025C37 31.9494 37.98 31.1139 39.1 31.1139C40.22 31.1139 41.2 32.0886 41.2 33.2025Z" fill="#212322" fill-opacity="0.3"/>
</svg>
