<svg width="327" height="213" viewBox="0 0 327 213" fill="none" xmlns="http://www.w3.org/2000/svg">
<g filter="url(#filter0_d_2017_539)">
<path d="M192.798 1H182.264V58.3579C182.264 62.7037 182.352 66.4541 181.644 69.5497C180.936 72.6751 179.844 75.1456 178.339 76.9613C176.952 78.9258 174.975 80.3545 172.437 81.188C167.669 83.2493 162.016 83.0846 157.152 81.4261C154.496 80.5629 152.283 79.2235 150.483 77.4078C148.654 75.4433 147.326 72.8834 146.499 69.7878C145.644 66.722 145.231 62.912 145.231 58.3877V1.02976H134.755V63.4478C134.755 73.0323 137.411 80.2057 142.693 84.9979C145.349 87.4089 148.624 89.1651 152.578 90.2962C153.375 90.5938 154.349 90.8022 155.499 90.951C145.85 94.4633 139.299 99.2556 135.788 105.328C130.889 112.799 130.742 122.234 135.345 133.664L164.057 204L191.765 133.664C196.221 122.234 196.074 112.769 191.323 105.328C187.959 99.3746 181.614 94.6717 172.29 91.1891C173.382 90.8915 174.503 90.5938 175.595 90.2962C179.224 89.1949 182.323 87.3792 184.801 84.8491C187.457 82.2893 189.434 79.1044 190.703 75.3242C192.09 71.3952 192.798 66.722 192.798 61.3345V1.02976M182.706 110.596C185.51 115.686 185.362 122.086 182.323 129.795L164.057 177.509L144.788 129.795C141.601 122.086 141.453 115.656 144.404 110.596C147.621 105.357 153.965 101.488 163.437 98.9579C172.939 101.488 179.342 105.357 182.706 110.596Z" fill="#FFA30B"/>
</g>
<defs>
<filter id="filter0_d_2017_539" x="127" y="0" width="73" height="213" filterUnits="userSpaceOnUse" color-interpolation-filters="sRGB">
<feFlood flood-opacity="0" result="BackgroundImageFix"/>
<feColorMatrix in="SourceAlpha" type="matrix" values="0 0 0 0 0 0 0 0 0 0 0 0 0 0 0 0 0 0 127 0" result="hardAlpha"/>
<feOffset dy="4"/>
<feGaussianBlur stdDeviation="2.5"/>
<feComposite in2="hardAlpha" operator="out"/>
<feColorMatrix type="matrix" values="0 0 0 0 0 0 0 0 0 0 0 0 0 0 0 0 0 0 0.25 0"/>
<feBlend mode="normal" in2="BackgroundImageFix" result="effect1_dropShadow_2017_539"/>
<feBlend mode="normal" in="SourceGraphic" in2="effect1_dropShadow_2017_539" result="shape"/>
</filter>
</defs>
</svg>
