<svg width="24" height="24" viewBox="0 0 24 24" fill="none" xmlns="http://www.w3.org/2000/svg">
<path fill-rule="evenodd" clip-rule="evenodd" d="M8.35 5.2C6.6103 5.2 5.2 6.6103 5.2 8.35V15.85C5.2 17.5897 6.6103 19 8.35 19H15.85C17.5897 19 19 17.5897 19 15.85V8.35C19 6.6103 17.5897 5.2 15.85 5.2H8.35ZM4 8.35C4 5.94756 5.94756 4 8.35 4H15.85C18.2524 4 20.2 5.94756 20.2 8.35V15.85C20.2 18.2524 18.2524 20.2 15.85 20.2H8.35C5.94756 20.2 4 18.2524 4 15.85V8.35ZM12.4843 9.69349C11.9849 9.61944 11.4749 9.70474 11.0269 9.93724C10.5788 10.1697 10.2154 10.5376 9.98847 10.9885C9.76151 11.4394 9.68251 11.9504 9.76271 12.4488C9.84291 12.9472 10.0782 13.4076 10.4352 13.7646C10.7921 14.1215 11.2525 14.3569 11.7509 14.4371C12.2493 14.5173 12.7603 14.4383 13.2112 14.2113C13.6622 13.9843 14.03 13.621 14.2625 13.1729C14.495 12.7248 14.5803 12.2148 14.5063 11.7155C14.4307 11.2061 14.1934 10.7346 13.8293 10.3705C13.4652 10.0064 12.9936 9.76902 12.4843 9.69349ZM10.4742 8.87209C11.1463 8.52334 11.9113 8.3954 12.6603 8.50647C13.4243 8.61977 14.1317 8.97579 14.6778 9.52195C15.224 10.0681 15.58 10.7754 15.6933 11.5395C15.8044 12.2885 15.6764 13.0535 15.3277 13.7256C14.9789 14.3977 14.4271 14.9427 13.7508 15.2832C13.0744 15.6236 12.3079 15.7421 11.5603 15.6218C10.8127 15.5015 10.1221 15.1485 9.58665 14.6131C9.05122 14.0777 8.69825 13.3871 8.57795 12.6395C8.45765 11.8919 8.57615 11.1254 8.91658 10.449C9.25702 9.77264 9.80206 9.22084 10.4742 8.87209ZM16.225 7.375C15.8936 7.375 15.625 7.64363 15.625 7.975C15.625 8.30637 15.8936 8.575 16.225 8.575H16.2325C16.5639 8.575 16.8325 8.30637 16.8325 7.975C16.8325 7.64363 16.5639 7.375 16.2325 7.375H16.225Z" fill="black"/>
</svg>
