<svg width="36" height="37" viewBox="0 0 36 37" fill="none" xmlns="http://www.w3.org/2000/svg">
<path fill-rule="evenodd" clip-rule="evenodd" d="M12.5234 8.56921C9.96912 8.56921 7.89844 10.6399 7.89844 13.1942V24.4442C7.89844 26.9985 9.96912 29.0692 12.5234 29.0692H23.7734C26.3278 29.0692 28.3984 26.9985 28.3984 24.4442V13.1942C28.3984 10.6399 26.3278 8.56921 23.7734 8.56921H12.5234ZM5.89844 13.1942C5.89844 9.53533 8.86455 6.56921 12.5234 6.56921H23.7734C27.4323 6.56921 30.3984 9.53533 30.3984 13.1942V24.4442C30.3984 28.1031 27.4323 31.0692 23.7734 31.0692H12.5234C8.86455 31.0692 5.89844 28.1031 5.89844 24.4442V13.1942ZM18.7102 15.3084C17.982 15.2004 17.2382 15.3248 16.5848 15.6638C15.9313 16.0029 15.4014 16.5394 15.0705 17.1969C14.7395 17.8545 14.6243 18.5997 14.7412 19.3266C14.8582 20.0534 15.2014 20.7248 15.7219 21.2454C16.2425 21.7659 16.9139 22.1091 17.6407 22.2261C18.3676 22.343 19.1128 22.2278 19.7703 21.8968C20.4279 21.5659 20.9644 21.036 21.3035 20.3825C21.6425 19.7291 21.7669 18.9853 21.6589 18.2571C21.5488 17.5143 21.2026 16.8266 20.6717 16.2956C20.1407 15.7647 19.453 15.4185 18.7102 15.3084ZM15.6636 13.8886C16.6905 13.3558 17.8592 13.1603 19.0035 13.33C20.1708 13.5031 21.2515 14.047 22.0859 14.8814C22.9203 15.7158 23.4642 16.7965 23.6373 17.9638C23.807 19.1081 23.6115 20.2768 23.0787 21.3036C22.5459 22.3305 21.7029 23.1632 20.6695 23.6833C19.6362 24.2034 18.4652 24.3844 17.323 24.2007C16.1808 24.0169 15.1257 23.4776 14.3077 22.6596C13.4897 21.8416 12.9504 20.7865 12.7666 19.6443C12.5828 18.5021 12.7639 17.3311 13.284 16.2978C13.8041 15.2644 14.6368 14.4214 15.6636 13.8886ZM24.3359 12.0317C24.0046 12.0317 23.7359 12.3003 23.7359 12.6317C23.7359 12.9631 24.0046 13.2317 24.3359 13.2317H24.3472C24.6786 13.2317 24.9472 12.9631 24.9472 12.6317C24.9472 12.3003 24.6786 12.0317 24.3472 12.0317H24.3359Z" fill="#212322"/>
</svg>
