<svg width="36" height="37" viewBox="0 0 36 37" fill="none" xmlns="http://www.w3.org/2000/svg">
<path d="M26.1479 17.979L27.054 18.4021L27.0541 18.4019L26.1479 17.979ZM24.5951 20.2924L25.3293 20.9713L25.33 20.9706L24.5951 20.2924ZM24.5902 20.2977L25.3243 20.9767L25.3244 20.9766L24.5902 20.2977ZM23.1162 22.0565L22.2741 21.5171L22.2738 21.5176L23.1162 22.0565ZM18.2782 32.884L19.2425 33.1485L19.2426 33.1483L18.2782 32.884ZM17.8239 32.8629L16.8448 33.0658L16.8449 33.0664L17.8239 32.8629ZM12.4366 21.641L11.6012 22.1906L11.6014 22.1909L12.4366 21.641ZM11.2802 20.1557L10.5097 20.7932H10.5097L11.2802 20.1557ZM11.007 19.8241L10.2303 20.454L10.2321 20.4562L11.007 19.8241ZM18 4.16919C12.4759 4.16919 8 8.64507 8 14.1692H10C10 9.74964 13.5805 6.16919 18 6.16919V4.16919ZM28 14.1727C28 8.64533 23.5244 4.16919 18 4.16919V6.16919C22.4193 6.16919 26 9.74939 26 14.1727H28ZM27.0541 18.4019C27.6546 17.1151 28 15.6862 28 14.1727H26C26 15.3776 25.7257 16.519 25.2417 17.5562L27.0541 18.4019ZM25.33 20.9706C26.0295 20.2124 26.6121 19.3484 27.054 18.4021L25.2418 17.556C24.8879 18.314 24.4212 19.0063 23.8601 19.6143L25.33 20.9706ZM25.3244 20.9766L25.3293 20.9713L23.8608 19.6135L23.856 19.6188L25.3244 20.9766ZM23.9583 22.5959C24.243 22.1513 24.866 21.4723 25.3243 20.9767L23.856 19.6187C23.4474 20.0606 22.6769 20.8883 22.2741 21.5171L23.9583 22.5959ZM19.2426 33.1483C19.769 31.2273 21.1368 27.0066 23.9586 22.5954L22.2738 21.5176C19.3069 26.1557 17.8719 30.5829 17.3137 32.6197L19.2426 33.1483ZM16.8449 33.0664C16.8821 33.2457 16.9335 33.4468 17.013 33.6248C17.0516 33.7114 17.1206 33.8474 17.2381 33.9776C17.3553 34.1074 17.6032 34.3183 17.9846 34.3382C18.3719 34.3583 18.6445 34.1689 18.7796 34.0418C18.9118 33.9175 18.9923 33.7826 19.0372 33.6981C19.1298 33.524 19.1942 33.3248 19.2425 33.1485L17.3138 32.6195C17.2776 32.7513 17.2593 32.7818 17.2712 32.7594C17.2758 32.7508 17.3165 32.6723 17.4095 32.5849C17.5053 32.4947 17.7392 32.3227 18.0885 32.3409C18.4318 32.3587 18.6422 32.5483 18.7226 32.6373C18.8033 32.7267 18.8361 32.8025 18.8393 32.8096C18.8478 32.8286 18.8309 32.7934 18.803 32.6593L16.8449 33.0664ZM11.6014 22.1909C13.6295 25.2718 16.1268 29.6025 16.8448 33.0658L18.8031 32.6599C17.9999 28.7852 15.3001 24.1722 13.2719 21.0912L11.6014 22.1909ZM10.5097 20.7932C10.9141 21.2819 11.3573 21.8199 11.6012 22.1906L13.272 21.0914C12.9539 20.6079 12.4269 19.9731 12.0507 19.5183L10.5097 20.7932ZM10.2321 20.4562C10.3165 20.5596 10.4116 20.6745 10.5097 20.7932L12.0507 19.5183C11.9514 19.3982 11.8611 19.2891 11.782 19.1921L10.2321 20.4562ZM8 14.1692C8 16.5526 8.83856 18.7377 10.2303 20.454L11.7838 19.1943C10.6685 17.819 10 16.0745 10 14.1692H8ZM20 14.1692C20 15.2738 19.1046 16.1692 18 16.1692V18.1692C20.2091 18.1692 22 16.3783 22 14.1692H20ZM18 12.1692C19.1046 12.1692 20 13.0646 20 14.1692H22C22 11.9601 20.2091 10.1692 18 10.1692V12.1692ZM16 14.1692C16 13.0646 16.8954 12.1692 18 12.1692V10.1692C15.7909 10.1692 14 11.9601 14 14.1692H16ZM18 16.1692C16.8954 16.1692 16 15.2738 16 14.1692H14C14 16.3783 15.7909 18.1692 18 18.1692V16.1692Z" fill="black"/>
</svg>
