<svg width="36" height="37" viewBox="0 0 36 37" fill="none" xmlns="http://www.w3.org/2000/svg">
<path fill-rule="evenodd" clip-rule="evenodd" d="M17.7741 10.5692C17.7741 9.56921 17.774 9.56921 17.7739 9.56921H17.7736L17.7724 9.56921L17.7679 9.56922L17.7507 9.56923L17.6845 9.56934C17.6265 9.56947 17.5416 9.56973 17.433 9.57024C17.2159 9.57125 16.904 9.57329 16.5238 9.57736C15.7638 9.58549 14.7292 9.60175 13.6325 9.63434C12.5374 9.66688 11.3725 9.71592 10.3544 9.79018C9.36422 9.8624 8.42812 9.96357 7.84072 10.1207L7.82685 10.1245C7.12792 10.3222 6.49354 10.7009 5.9878 11.2223C5.48207 11.7437 5.12287 12.3893 4.94651 13.0939C4.9411 13.1155 4.93641 13.1373 4.93246 13.1592C4.5678 15.1813 4.38926 17.2326 4.39907 19.2873C4.38641 21.3575 4.56497 23.4244 4.93246 25.4617C4.93832 25.4942 4.94578 25.5264 4.95482 25.5581C5.14926 26.2409 5.5165 26.8619 6.02106 27.3613C6.52562 27.8606 7.15044 28.2214 7.83516 28.4088L7.84072 28.4103C8.42812 28.5674 9.36422 28.6685 10.3544 28.7407C11.3725 28.815 12.5374 28.864 13.6325 28.8966C14.7292 28.9292 15.7638 28.9454 16.5238 28.9536C16.904 28.9576 17.2159 28.9597 17.433 28.9607C17.5416 28.9612 17.6265 28.9615 17.6845 28.9616L17.7507 28.9617L17.7679 28.9617H17.7724L17.7736 28.9617H17.7739C17.774 28.9617 17.7741 28.9617 17.7741 27.9617C17.7741 28.9617 17.7741 28.9617 17.7742 28.9617H17.7746L17.7758 28.9617H17.7802L17.7974 28.9617L17.8637 28.9616C17.9216 28.9615 18.0065 28.9612 18.1151 28.9607C18.3323 28.9597 18.6442 28.9576 19.0244 28.9536C19.7844 28.9454 20.819 28.9292 21.9157 28.8966C23.0107 28.864 24.1757 28.815 25.1938 28.7407C26.1839 28.6685 27.12 28.5674 27.7074 28.4103L27.7213 28.4064C28.4202 28.2087 29.0546 27.83 29.5604 27.3086C30.0661 26.7873 30.4253 26.1417 30.6017 25.437C30.6071 25.4154 30.6118 25.3936 30.6157 25.3717C30.9776 23.3646 31.1561 21.3287 31.1491 19.2893C31.1618 17.2189 30.9832 15.1518 30.6157 13.1142C30.6117 13.0923 30.6071 13.0705 30.6017 13.0489C30.4253 12.3443 30.0661 11.6987 29.5604 11.1773C29.0546 10.6559 28.4202 10.2772 27.7213 10.0795C27.7097 10.0762 27.698 10.0731 27.6863 10.0703C27.1068 9.92876 26.178 9.83672 25.1875 9.77076C24.1711 9.70307 23.0076 9.65834 21.9131 9.62864C20.8171 9.59891 19.7831 9.58406 19.0235 9.57664C18.6435 9.57293 18.3317 9.57108 18.1147 9.57015C18.0062 9.56968 17.9214 9.56945 17.8635 9.56933L17.7973 9.56923L17.7802 9.56922L17.7757 9.56921L17.7746 9.56921H17.7742C17.7741 9.56921 17.7741 9.56921 17.7741 10.5692ZM17.7741 10.5692L17.7741 11.5692H17.7743L17.7753 11.5692L17.7792 11.5692L17.7954 11.5692L17.8595 11.5693C17.9159 11.5694 17.9992 11.5697 18.1062 11.5701C18.32 11.571 18.6281 11.5729 19.0039 11.5765C19.756 11.5839 20.7779 11.5986 21.8588 11.6279C22.9412 11.6573 24.0755 11.7011 25.0546 11.7663C26.0444 11.8323 26.8007 11.9159 27.194 12.0089C27.5475 12.1121 27.8682 12.3053 28.1248 12.5698C28.3784 12.8313 28.5605 13.1533 28.6539 13.505C28.9955 15.4113 29.1613 17.345 29.1491 19.2817H29.1491L29.1491 19.2916C29.1559 21.1991 28.9902 23.1033 28.6539 24.9809C28.5605 25.3326 28.3784 25.6547 28.1248 25.9161C27.8658 26.1831 27.5413 26.3776 27.1837 26.48C26.8014 26.5809 26.0475 26.6732 25.0483 26.746C24.0709 26.8173 22.9381 26.8653 21.8563 26.8975C20.776 26.9296 19.7547 26.9456 19.003 26.9537C18.6273 26.9577 18.3194 26.9597 18.1057 26.9607C17.9989 26.9612 17.9157 26.9615 17.8593 26.9616L17.7953 26.9617L17.7792 26.9617H17.7752L17.7743 26.9617H17.7741H17.7739L17.7729 26.9617H17.769L17.7529 26.9617L17.6889 26.9616C17.6325 26.9615 17.5492 26.9612 17.4424 26.9607C17.2287 26.9597 16.9208 26.9577 16.5452 26.9537C15.7934 26.9456 14.7721 26.9296 13.6919 26.8975C12.6101 26.8653 11.4772 26.8173 10.4999 26.746C9.497 26.6729 8.74121 26.5803 8.36021 26.4789C8.00837 26.3821 7.68731 26.1965 7.42793 25.9397C7.17856 25.6929 6.99427 25.3885 6.89117 25.0536C6.55167 23.1529 6.38694 21.2251 6.39906 19.2942H6.39912L6.39907 19.283C6.38957 17.3609 6.55533 15.442 6.89427 13.55C6.98767 13.1983 7.16979 12.8762 7.42339 12.6148C7.6824 12.3478 8.00688 12.1534 8.36442 12.0509C8.74676 11.95 9.50068 11.8578 10.4999 11.7849C11.4772 11.7136 12.6101 11.6656 13.6919 11.6335C14.7721 11.6014 15.7934 11.5853 16.5452 11.5772C16.9208 11.5732 17.2287 11.5712 17.4424 11.5702C17.5492 11.5697 17.6325 11.5695 17.6889 11.5693L17.7529 11.5692L17.769 11.5692L17.7729 11.5692L17.7739 11.5692H17.7741L17.7741 10.5692ZM15.7373 14.7399C15.4277 14.5639 15.0479 14.5657 14.7401 14.7448C14.4323 14.9239 14.2429 15.2531 14.2429 15.6092V22.9667C14.2429 23.3228 14.4323 23.652 14.7401 23.8311C15.0479 24.0101 15.4277 24.012 15.7373 23.836L22.206 20.1572C22.5186 19.9794 22.7117 19.6475 22.7117 19.2879C22.7117 18.9283 22.5186 18.5964 22.206 18.4187L15.7373 14.7399ZM19.6888 19.2879L16.2429 21.2476V17.3283L19.6888 19.2879Z" fill="#212322"/>
</svg>
