<svg width="24" height="24" viewBox="0 0 24 24" fill="none" xmlns="http://www.w3.org/2000/svg">
<path fill-rule="evenodd" clip-rule="evenodd" d="M11.8504 6.6L11.8503 6H11.8501H11.8493H11.8464L11.8349 6.00001L11.7908 6.00009L11.6234 6.00068C11.4787 6.00136 11.2709 6.00272 11.0176 6.00542C10.5112 6.01084 9.82192 6.02168 9.09136 6.04339C8.36176 6.06507 7.5862 6.09773 6.90881 6.14714C6.2482 6.19532 5.6301 6.26249 5.24541 6.36537L5.2454 6.36531L5.23709 6.36766C4.78242 6.49629 4.36975 6.74263 4.04076 7.0818C3.71177 7.42097 3.47811 7.84094 3.36338 8.29932C3.36014 8.31228 3.35733 8.32536 3.35495 8.33852C3.11255 9.68269 2.99388 11.0463 3.00042 12.4121C2.99199 13.7882 3.11067 15.1622 3.35496 16.5165C3.35847 16.536 3.36295 16.5553 3.36837 16.5743C3.49486 17.0185 3.73375 17.4225 4.06198 17.7473C4.3902 18.0722 4.79666 18.3069 5.24208 18.4287L5.24541 18.4296C5.6301 18.5325 6.2482 18.5997 6.90881 18.6479C7.5862 18.6973 8.36176 18.7299 9.09136 18.7516C9.82192 18.7733 10.5112 18.7842 11.0176 18.7896C11.2709 18.7923 11.4787 18.7936 11.6234 18.7943L11.7908 18.7949L11.8349 18.795L11.8464 18.795H11.8493L11.8501 18.795H11.8503L11.8504 18.195L11.8505 18.795H11.8507L11.8515 18.795H11.8545L11.8659 18.795L11.91 18.7949L12.0775 18.7943C12.2221 18.7936 12.4299 18.7923 12.6833 18.7896C13.1896 18.7842 13.8789 18.7733 14.6095 18.7516C15.3391 18.7299 16.1147 18.6973 16.792 18.6479C17.4527 18.5997 18.0708 18.5325 18.4554 18.4296L18.4555 18.4297L18.4638 18.4273C18.9184 18.2987 19.3311 18.0524 19.6601 17.7132C19.9891 17.374 20.2227 16.9541 20.3375 16.4957C20.3407 16.4827 20.3435 16.4696 20.3459 16.4565C20.5865 15.1223 20.7051 13.769 20.7004 12.4133C20.7089 11.0371 20.5902 9.66294 20.3459 8.30849C20.3435 8.29534 20.3407 8.28228 20.3375 8.26932C20.2227 7.81094 19.9891 7.39096 19.6601 7.0518C19.3311 6.71263 18.9184 6.46629 18.4638 6.33766C18.4568 6.33569 18.4498 6.33384 18.4428 6.33213C18.0628 6.23935 17.4491 6.17822 16.7883 6.13422C16.1119 6.08917 15.3372 6.05938 14.608 6.0396C13.8778 6.01979 13.1889 6.00989 12.6827 6.00495C12.4295 6.00248 12.2218 6.00124 12.0772 6.00062L11.9099 6.00008L11.8659 6.00001L11.8545 6H11.8515H11.8507H11.8505L11.8504 6.6ZM20.7004 12.4133L20.7004 12.4103L20.1004 12.4125L20.7004 12.4163L20.7004 12.4133ZM11.8504 6.6L11.8505 7.2H11.8506L11.8512 7.2L11.8539 7.2L11.8647 7.20001L11.9075 7.20008L12.0721 7.20061C12.2148 7.20122 12.4203 7.20244 12.671 7.20489C13.1726 7.20979 13.8543 7.21959 14.5754 7.23915C15.2974 7.25874 16.0546 7.28801 16.7085 7.33156C17.3692 7.37556 17.8794 7.43164 18.1474 7.49531C18.3948 7.56723 18.6193 7.7023 18.7987 7.88731C18.9764 8.07046 19.1038 8.29623 19.1688 8.54277C19.3976 9.81852 19.5086 11.1126 19.5004 12.4087H19.5004L19.5004 12.4147C19.505 13.6913 19.394 14.9657 19.1688 16.2222C19.1038 16.4688 18.9764 16.6945 18.7987 16.8777C18.6178 17.0642 18.391 17.2 18.1412 17.2715C17.8796 17.3407 17.3709 17.4025 16.7048 17.451C16.0518 17.4987 15.2955 17.5307 14.5739 17.5521C13.8532 17.5736 13.1719 17.5843 12.6704 17.5896C12.4198 17.5923 12.2144 17.5937 12.0719 17.5943L11.9074 17.5949L11.8646 17.595L11.8539 17.595L11.8512 17.595H11.8506H11.8504L11.8504 18.195L11.8504 17.595H11.8503H11.8496L11.847 17.595L11.8362 17.595L11.7935 17.5949L11.629 17.5943C11.4864 17.5937 11.281 17.5923 11.0304 17.5896C10.529 17.5843 9.84769 17.5736 9.127 17.5521C8.40535 17.5307 7.64903 17.4987 6.99611 17.451C6.32788 17.4023 5.81801 17.3403 5.55718 17.2708C5.31145 17.2033 5.08723 17.0737 4.9061 16.8944C4.73107 16.7212 4.60196 16.5072 4.53024 16.272C4.30271 14.9995 4.1923 13.7089 4.20042 12.4163H4.20045L4.20042 12.4095C4.19407 11.1232 4.30508 9.83892 4.53208 8.57276C4.59706 8.32623 4.72445 8.10046 4.90211 7.91731C5.08307 7.73076 5.3098 7.59498 5.55963 7.52352C5.8212 7.45435 6.32998 7.39254 6.99611 7.34396C7.64903 7.29633 8.40535 7.2643 9.127 7.24286C9.84769 7.22144 10.529 7.21072 11.0304 7.20536C11.281 7.20268 11.4864 7.20134 11.629 7.20067L11.7935 7.20008L11.8362 7.20001L11.847 7.2L11.8496 7.2L11.8503 7.2H11.8504L11.8504 6.6ZM10.4596 9.43843C10.2739 9.3328 10.046 9.33392 9.8613 9.44135C9.67661 9.54878 9.56299 9.74632 9.56299 9.95999V14.865C9.56299 15.0786 9.67661 15.2762 9.8613 15.3836C10.046 15.4911 10.2739 15.4922 10.4596 15.3865L14.7721 12.934C14.9596 12.8274 15.0755 12.6282 15.0755 12.4125C15.0755 12.1967 14.9596 11.9976 14.7721 11.8909L10.4596 9.43843ZM13.2618 12.4125L10.763 13.8335V10.9914L13.2618 12.4125Z" fill="black"/>
</svg>
