<svg width="367" height="305" viewBox="0 0 367 305" fill="none" xmlns="http://www.w3.org/2000/svg">
<path d="M328.015 54.4098C288.541 81.1636 283.072 98.0324 283.072 98.0324C283.072 98.0324 243.614 107.715 189.848 135.764C189.848 135.764 212.909 109.349 233.349 88.4914C253.789 67.6341 272.036 32.9123 266.835 28.9586C261.634 25.0049 233.838 35.7901 215.559 57.2712C197.279 78.7522 190.586 98.7319 187.345 137.074C162.978 149.946 135.787 166.55 108.081 187.696C108.081 187.696 202.882 1.1981 164.966 0.264643C88.6334 -1.59266 92.8199 154.069 102.487 192.016C80.5705 209.195 58.4114 229.226 37.1512 252.515C37.1512 252.515 89.7228 73.3537 52.8222 83.9919C-3.88393 100.339 17.7281 232.566 33.2005 256.905L33.2129 256.906C23.2596 268.056 13.5243 279.91 4.11265 292.552C-6.58761 306.925 7.72958 309.653 16.5863 296.305C22.5564 288.243 28.5749 280.511 34.6429 273.095C76.2197 289.347 187.13 275.446 186.745 249.551C186.36 223.655 80.421 229.639 39.2923 267.475C60.1698 242.581 81.4863 221.383 102.385 203.347C136.353 219.336 199.941 232.718 235.264 231.431C270.586 230.145 288.188 223.584 290.236 215.219C292.284 206.854 285.742 185.133 219.58 183.384C153.966 181.641 106.727 200.001 105.941 200.3C132.897 177.457 159.095 159.849 182.724 146.368C203.209 160.271 250.396 164.874 281.149 164.493C311.916 164.101 344.068 157.214 345.195 143.23C346.323 129.246 310.423 122.043 273.226 127.374C236.067 132.696 189.701 144.258 186.805 144.074C243.02 112.75 283.738 104.955 283.738 104.955C283.738 104.955 356.234 100.958 353.526 88.8501C350.818 76.7424 313.087 86.8266 313.087 86.8266C313.087 86.8266 316.924 85.0877 348.772 66.3241C380.633 47.5615 367.477 27.6426 328.003 54.3964L328.015 54.4098Z" fill="#F6FCF4"/>
</svg>
