<svg width="17" height="17" viewBox="0 0 17 17" fill="none" xmlns="http://www.w3.org/2000/svg">
<path d="M2.41716 8.83182C2.36301 8.80424 2.33594 8.75598 2.33594 8.68704C2.33594 8.6181 2.36301 8.56984 2.41716 8.54226L7.26995 4.71599C7.28348 4.70221 7.30379 4.69531 7.33086 4.69531C7.37147 4.69531 7.40531 4.7091 7.43238 4.73668C7.45946 4.77804 7.46623 4.81941 7.45269 4.86077L4.87401 8.23202H14.2344C14.2615 8.23202 14.2886 8.28028 14.3156 8.3768C14.3292 8.48711 14.3359 8.60431 14.3359 8.7284C14.3359 8.83871 14.3292 8.93523 14.3156 9.01796C14.3021 9.11448 14.2818 9.16274 14.2547 9.16274H4.89431L7.45269 12.534V12.5547C7.45269 12.596 7.43238 12.6305 7.39178 12.6581C7.35117 12.6994 7.31056 12.7063 7.26995 12.6788L2.41716 8.83182Z" fill="black"/>
</svg>
