<svg width="263" height="80" viewBox="0 0 263 80" fill="none" xmlns="http://www.w3.org/2000/svg">
<path d="M19.2235 26.9536C19.2235 25.5402 18.7997 24.3896 17.943 23.5017C17.0862 22.6138 16.0176 21.8165 14.7371 21.128C13.4565 20.4394 12.0563 19.7871 10.5546 19.1891C9.05302 18.5821 7.65274 17.8482 6.37222 16.9966C5.0917 16.1359 4.02306 15.0759 3.16631 13.8165C2.30956 12.5572 1.88579 10.9445 1.88579 8.9966C1.88579 6.2333 2.8623 4.04983 4.81532 2.43715C6.74992 0.806342 9.52285 0 13.1157 0C15.1977 0 17.1046 0.15402 18.8089 0.453001C20.5224 0.761042 21.849 1.14156 22.8163 1.61268L21.5358 5.34541C20.7527 4.96489 19.592 4.60249 18.0719 4.24915C16.5519 3.90487 14.8292 3.72367 12.913 3.72367C10.656 3.72367 8.96089 4.22197 7.82777 5.20951C6.70386 6.20612 6.13269 7.37486 6.13269 8.71574C6.13269 10.0566 6.55646 11.1257 7.41321 11.9955C8.26997 12.8652 9.3386 13.6535 10.6191 14.342C11.8996 15.0306 13.2999 15.7101 14.8015 16.3896C16.3032 17.06 17.7034 17.8482 18.984 18.7361C20.2645 19.624 21.3331 20.6931 22.1899 21.9434C23.0466 23.1937 23.4704 24.7339 23.4704 26.5821C23.4704 28.0951 23.194 29.4632 22.6505 30.6682C22.107 31.8822 21.2963 32.9241 20.2368 33.8029C19.1774 34.6818 17.8969 35.3522 16.3861 35.8233C14.8752 36.2944 13.1709 36.53 11.2548 36.53C8.68452 36.53 6.56568 36.3397 4.88902 35.9502C3.21237 35.5606 1.91343 35.1348 0.992188 34.6636L2.42932 30.9309C3.21237 31.3567 4.38234 31.7735 5.92081 32.1812C7.45928 32.5889 9.1912 32.7973 11.1074 32.7973C12.2405 32.7973 13.2999 32.6886 14.2856 32.4711C15.2806 32.2537 16.1373 31.9003 16.8559 31.4111C17.5745 30.9219 18.1456 30.3058 18.5786 29.5719C19.0024 28.829 19.2235 27.9592 19.2235 26.9445" fill="#212322"/>
<path d="M57.7405 0.607056H53.4844V35.9321H57.7405V0.607056Z" fill="#212322"/>
<path d="M76.5312 0.906035C77.8302 0.670474 79.3318 0.489274 81.0177 0.353373C82.7128 0.217473 84.2604 0.154053 85.6607 0.154053C87.236 0.154053 88.7284 0.326193 90.1471 0.661414C91.5658 0.996635 92.8187 1.5493 93.8966 2.32846C94.9744 3.10762 95.8404 4.11328 96.4853 5.35451C97.1301 6.59573 97.4618 8.11781 97.4618 9.89358C97.4618 12.6478 96.6879 14.8856 95.1495 16.6071C93.611 18.3194 92.6068 19.1982 90.2485 19.769L100.253 35.8868H95.2784L85.8173 20.6478H80.7874V35.8868H76.5312V0.906035ZM85.7713 3.78712H84.3894C83.9104 3.78712 83.4497 3.80524 83.0075 3.84148C82.5654 3.87772 82.1416 3.91396 81.7455 3.94114C81.3493 3.97738 81.0361 4.02268 80.7966 4.09516V17.1144H84.7948C87.1531 17.1144 89.1061 16.5436 90.6446 15.4021C92.1831 14.2605 92.9569 12.4757 92.9569 10.0567C92.9569 8.23559 92.3213 6.74069 91.0592 5.56289C89.7971 4.38508 88.0283 3.79618 85.7713 3.79618" fill="#212322"/>
<path d="M132.462 0.905939C133.761 0.606959 135.162 0.398578 136.672 0.298918C138.174 0.199258 139.666 0.144897 141.14 0.144897C142.716 0.144897 144.309 0.298918 145.94 0.597899C147.561 0.896879 149.045 1.4586 150.38 2.26494C151.716 3.07128 152.803 4.18567 153.642 5.59903C154.48 7.01239 154.894 8.81534 154.894 10.9988C154.894 13.1823 154.498 14.9671 153.715 16.4529C152.923 17.9388 151.882 19.1347 150.583 20.0588C149.284 20.9829 147.792 21.6443 146.115 22.052C144.438 22.4597 142.706 22.6591 140.929 22.6591H140.081C139.685 22.6591 139.279 22.6591 138.847 22.6319C138.423 22.6138 137.999 22.5866 137.584 22.5594C137.17 22.5232 136.884 22.496 136.709 22.4597V35.8867H132.453V0.905939H132.462ZM141.242 3.78703C140.348 3.78703 139.501 3.80515 138.671 3.84139C137.852 3.87763 137.198 3.95917 136.718 4.09507V18.7361C136.893 18.8085 137.161 18.8448 137.538 18.8629C137.916 18.881 138.312 18.8991 138.718 18.9173C139.132 18.9354 139.519 18.9444 139.897 18.9444H140.717C141.877 18.9444 143.038 18.8357 144.18 18.6183C145.323 18.4008 146.364 18.0022 147.285 17.4314C148.206 16.8606 148.952 16.0543 149.514 15.0124C150.076 13.9705 150.362 12.6387 150.362 11.026C150.362 9.64886 150.095 8.49824 149.57 7.57411C149.035 6.64999 148.335 5.90707 147.469 5.35441C146.594 4.80175 145.618 4.40311 144.521 4.16755C143.425 3.93199 142.338 3.81421 141.242 3.81421" fill="#212322"/>
<path d="M68.894 68.6479C68.894 67.2345 68.4702 66.0839 67.6134 65.187C66.7567 64.2991 65.6881 63.5018 64.4075 62.8132C63.127 62.1247 61.7267 61.4724 60.2251 60.8653C58.7235 60.2583 57.3232 59.5335 56.0427 58.6728C54.7622 57.8121 53.6935 56.7521 52.8368 55.4927C51.98 54.2334 51.5563 52.6207 51.5563 50.6728C51.5563 47.9186 52.5328 45.726 54.4858 44.1134C56.4388 42.5007 59.2025 41.6943 62.7954 41.6943C64.8774 41.6943 66.7843 41.8484 68.4886 42.1473C70.2021 42.4463 71.5287 42.8359 72.496 43.307L71.2155 47.0397C70.4324 46.6592 69.2717 46.2968 67.7516 45.9435C66.2316 45.5992 64.5089 45.418 62.5927 45.418C60.3357 45.418 58.6406 45.9163 57.5075 46.9038C56.3836 47.9005 55.8124 49.0692 55.8124 50.4101C55.8124 51.751 56.2362 52.82 57.0929 53.6898C57.9497 54.5686 59.0183 55.3478 60.2988 56.0363C61.5793 56.7249 62.9796 57.4044 64.4812 58.0839C65.9829 58.7544 67.3831 59.5426 68.6636 60.4305C69.9442 61.3183 71.0128 62.3874 71.8696 63.6377C72.7263 64.888 73.1501 66.4282 73.1501 68.2764C73.1501 69.7895 72.8737 71.1575 72.3302 72.3625C71.7866 73.5766 70.976 74.6185 69.9165 75.4882C68.8571 76.367 67.5766 77.0375 66.0658 77.5086C64.5549 77.9797 62.8506 78.2153 60.9345 78.2153C58.3642 78.2153 56.2454 78.025 54.5687 77.6354C52.8921 77.2459 51.5931 76.82 50.6719 76.3489L52.109 72.6162C52.8921 73.042 54.062 73.4588 55.6005 73.8665C57.139 74.2742 58.8709 74.4826 60.7871 74.4826C61.9202 74.4826 62.9796 74.3738 63.9653 74.1564C64.9603 73.939 65.817 73.5856 66.5356 73.0964C67.2542 72.6071 67.8253 71.9911 68.2583 71.2572C68.6821 70.5143 68.9032 69.6445 68.9032 68.6298" fill="#212322"/>
<path d="M76.8125 42.3013H96.8126V46.034H81.0686V57.5946H95.0806V61.3273H81.0686V73.8936H97.9641V77.6263H76.8125V42.3013Z" fill="#212322"/>
<path d="M170.995 61.273H170.82V77.6263H166.555V42.3013H170.82V58.0476H170.894L185.182 42.3013H190.111L174.514 59.0804L191.262 77.6263H186.315L170.995 61.273Z" fill="#212322"/>
<path d="M258.733 42.3011H262.989V69.8617C262.989 72.5526 262.381 74.6092 261.165 76.0226C259.949 77.4359 258.116 78.1426 255.647 78.1426C255.371 78.1426 255.03 78.1245 254.625 78.0882C254.21 78.052 253.805 78.0067 253.39 77.9342C252.976 77.8617 252.579 77.7802 252.183 77.6805C251.787 77.5809 251.474 77.4631 251.234 77.3272L252.054 73.7938C253.012 74.2015 254.053 74.4008 255.186 74.4008C256.624 74.4008 257.572 73.9025 258.033 72.915C258.494 71.9274 258.724 70.5684 258.724 68.8561V42.3102L258.733 42.3011Z" fill="#212322"/>
<path d="M140.074 41.7395H138.121L124.523 77.6263H128.78L132.354 67.8324H145.528L149.203 77.6263H153.717L140.065 41.7395H140.074ZM133.745 64.1993L139.005 49.9841L144.266 64.1993H133.745Z" fill="#212322"/>
<path d="M167.91 0H165.957L152.359 35.8867H156.615L160.19 26.0929H173.364L177.039 35.8867H181.553L167.91 0ZM161.572 22.4598L166.832 8.24462L172.092 22.4598H161.572Z" fill="#212322"/>
<path d="M27.125 0.960356C28.4239 0.724795 29.9256 0.543595 31.6114 0.407695C33.3065 0.271794 34.8542 0.208374 36.2545 0.208374C37.8298 0.208374 39.3222 0.380514 40.7409 0.715735C42.1596 1.05096 43.4125 1.60362 44.4903 2.38278C45.5682 3.15288 46.4341 4.1676 47.079 5.40883C47.7239 6.65005 48.0555 8.16307 48.0555 9.9479C48.0555 12.7112 47.2817 14.949 45.7432 16.6614C44.2047 18.3737 43.2006 19.2525 40.8422 19.8233L50.8469 35.9411H45.8722L36.4111 20.7021H31.3811V35.9411H27.125V0.960356ZM36.365 3.83238H34.9832C34.5041 3.83238 34.0435 3.8505 33.6013 3.88674C33.1591 3.92298 32.7353 3.95922 32.3392 3.9864C31.9431 4.02264 31.6299 4.06794 31.3903 4.14042V17.1597H35.3885C37.7469 17.1597 39.6999 16.5889 41.2384 15.4473C42.7768 14.3058 43.5507 12.5209 43.5507 10.0929C43.5507 8.28085 42.915 6.77689 41.6529 5.59909C40.3908 4.42128 38.622 3.83238 36.365 3.83238Z" fill="#212322"/>
<path d="M243.282 42.3012V65.3136V68.5209L223.734 41.7485H221.477V77.6262H225.475V51.18L245.033 78.1789H247.29V42.3012H243.282Z" fill="#212322"/>
<path d="M126.374 0H122.118V22.6048C122.118 24.3171 122.155 25.8029 121.869 27.017C121.584 28.2492 121.142 29.2186 120.534 29.9343C119.972 30.7135 119.17 31.2661 118.148 31.6014C117.475 31.8732 116.72 32.0453 115.872 32.1087C115.587 32.1631 115.31 32.1993 115.025 32.1993H114.85C113.781 32.145 112.823 31.9728 111.975 31.692C110.907 31.3567 110.004 30.8313 109.276 30.1065C108.53 29.3273 107.996 28.3307 107.673 27.0985C107.332 25.8845 107.157 24.3805 107.157 22.6048V0H102.92V24.598C102.92 28.376 103.988 31.2027 106.135 33.0872C107.203 34.0385 108.539 34.7361 110.124 35.171C110.455 35.2888 110.842 35.3794 111.303 35.4338C107.406 36.8199 104.753 38.7135 103.334 41.0963C101.353 44.0317 101.298 47.7554 103.159 52.2673L114.757 79.9909L125.96 52.2673C127.756 47.7644 127.701 44.0408 125.785 41.0963C124.43 38.7588 121.869 36.9015 118.083 35.5243C118.535 35.4066 118.977 35.2888 119.419 35.171C120.893 34.7361 122.137 34.0113 123.141 33.0238C124.209 32.0181 125.011 30.7678 125.527 29.2729C126.089 27.7237 126.374 25.8845 126.374 23.7644V0ZM122.293 43.1891C123.426 45.1914 123.371 47.7191 122.137 50.7633L114.748 69.5719L106.964 50.7633C105.674 47.7191 105.619 45.2005 106.807 43.1891C108.106 41.1234 110.667 39.6014 114.509 38.6048C118.35 39.6014 120.939 41.1325 122.293 43.1891Z" fill="#F49800"/>
<path d="M213.106 42.3011H212.139V64.7066C212.139 66.5186 212.213 68.1766 211.853 69.4087C211.678 69.9976 211.586 70.351 211.328 70.8312C211.024 71.3113 210.711 71.7372 210.425 72.1086C210.379 72.172 210.324 72.2264 210.278 72.2808C209.569 72.9965 208.703 73.522 207.662 73.8481C206.658 74.1652 205.884 74.3283 204.631 74.3464C203.369 74.3283 202.595 74.1562 201.591 73.8481C200.55 73.522 199.684 72.9965 198.974 72.2808C198.928 72.2264 198.873 72.163 198.827 72.1086C198.68 71.9184 198.505 71.719 198.33 71.5016C197.887 70.8674 197.703 70.4688 197.445 69.5899C197.086 68.3578 197.16 66.6182 197.16 64.7156V42.3102H192.922V66.6907C192.922 70.5231 194 73.3861 196.155 75.2706C197.823 76.7292 199.573 77.6171 202.236 77.9433C202.88 78.0429 203.571 78.0882 204.382 78.0882C204.465 78.0882 204.539 78.0882 204.622 78.0882C204.705 78.0882 204.778 78.0882 204.861 78.0882C205.672 78.0882 206.354 78.0339 207.008 77.9433C209.67 77.6081 211.43 76.7202 213.088 75.2706C215.243 73.3861 216.321 70.5231 216.321 66.6907V42.3102H213.106V42.3011Z" fill="#212322"/>
</svg>
