<svg width="125" height="33" viewBox="0 0 125 33" fill="none" xmlns="http://www.w3.org/2000/svg">
<g clip-path="url(#clip0_4068_7519)">
<path d="M39.1209 6.58887C38.8745 6.58887 38.6565 6.76801 38.6186 7.01315L35.7279 25.2477C35.69 25.5022 35.8606 25.738 36.1165 25.7851C36.1449 25.7851 36.1639 25.7945 36.1923 25.7945H39.6232C39.8696 25.7945 40.0876 25.6154 40.1255 25.3702L40.9785 20.0149C41.0164 19.7698 41.2249 19.5906 41.4808 19.5906H44.599C48.2384 19.5906 51.3281 16.9507 51.8967 13.3679C52.4654 9.75681 49.6316 6.60772 45.6131 6.5983H39.1209V6.58887ZM42.457 10.6619H44.9496C47.0063 10.6619 47.6697 11.8688 47.4612 13.1982C47.2527 14.537 46.2102 15.5176 44.2293 15.5176H41.6893L42.457 10.6619ZM58.8533 11.9065C57.9908 11.9065 56.9957 12.0856 55.8773 12.5476C53.3089 13.613 52.0768 15.8098 51.5555 17.4127C51.5555 17.4127 49.8875 22.2966 53.6501 24.9837C53.6501 24.9837 57.1379 27.5671 61.0616 24.8234L60.9952 25.2477C60.9573 25.5022 61.1279 25.738 61.3838 25.7851C61.4123 25.7851 61.4312 25.7945 61.4596 25.7945H64.7105C64.9569 25.7945 65.1749 25.6154 65.2128 25.3702L67.1936 12.887C67.2315 12.6325 67.0609 12.3968 66.805 12.3496C66.7766 12.3496 66.7576 12.3402 66.7292 12.3402H63.4784C63.232 12.3402 63.014 12.5193 62.9761 12.7645L62.8718 13.4339C62.8718 13.4339 61.4502 11.8971 58.8533 11.9065ZM58.9576 15.8476C59.3272 15.8476 59.6684 15.8947 59.9811 15.9984C61.3838 16.451 62.1799 17.7898 61.9525 19.2418C61.6681 21.0332 60.1896 22.3532 58.3036 22.3532C57.934 22.3532 57.5928 22.306 57.28 22.2023C55.8773 21.7497 55.0717 20.4109 55.3087 18.9589C55.5835 17.1675 57.0715 15.8476 58.9576 15.8476Z" fill="#003087"/>
<path d="M85.9803 6.58887C85.7339 6.58887 85.5159 6.76801 85.478 7.01315L82.5873 25.2477C82.5494 25.5022 82.72 25.738 82.9759 25.7851C83.0043 25.7851 83.0233 25.7945 83.0517 25.7945H86.4731C86.7195 25.7945 86.9375 25.6154 86.9754 25.3702L87.8284 20.0149C87.8663 19.7698 88.0748 19.5906 88.3307 19.5906H91.4489C95.0883 19.5906 98.178 16.9507 98.7466 13.3679C99.3153 9.75681 96.4815 6.60772 92.463 6.5983H85.9803V6.58887ZM89.3069 10.6619H91.7995C93.8562 10.6619 94.5196 11.8688 94.3111 13.1982C94.1026 14.537 93.0601 15.5176 91.0792 15.5176H88.5392L89.3069 10.6619ZM105.713 11.9065C104.85 11.9065 103.855 12.0856 102.737 12.5476C100.168 13.613 98.9362 15.8098 98.4149 17.4127C98.4149 17.4127 96.7468 22.2966 100.509 24.9837C100.509 24.9837 103.997 27.5671 107.921 24.8234L107.855 25.2477C107.817 25.5022 107.987 25.738 108.243 25.7851C108.272 25.7851 108.291 25.7945 108.319 25.7945H111.57C111.816 25.7945 112.034 25.6154 112.072 25.3702L114.053 12.8776C114.091 12.623 113.92 12.3873 113.664 12.3402C113.636 12.3402 113.617 12.3308 113.589 12.3308H110.338C110.091 12.3308 109.873 12.5099 109.835 12.755L109.731 13.4245C109.731 13.4339 108.31 11.8971 105.713 11.9065ZM105.817 15.8476C106.187 15.8476 106.528 15.8947 106.841 15.9984C108.243 16.451 109.039 17.7898 108.812 19.2418C108.528 21.0332 107.049 22.3532 105.163 22.3532C104.793 22.3532 104.452 22.306 104.139 22.2023C102.737 21.7497 101.931 20.4109 102.168 18.9589C102.443 17.1675 103.921 15.8476 105.817 15.8476Z" fill="#0070E0"/>
<path d="M68.7402 12.3405C68.4843 12.3405 68.2948 12.5951 68.3801 12.8308L71.9437 23.8431L68.7213 29.0288C68.5602 29.2833 68.7497 29.6039 69.0435 29.6039H72.8535C73.0715 29.6039 73.28 29.4907 73.3937 29.3022L83.3547 12.9062C83.5064 12.6516 83.3263 12.3311 83.0325 12.3311H79.2225C78.995 12.3311 78.796 12.4536 78.6728 12.6422L74.749 19.2326L72.7587 12.6988C72.6924 12.4819 72.4934 12.3405 72.2754 12.3405H68.7402Z" fill="#003087"/>
<path d="M117.75 6.58887C117.503 6.58887 117.285 6.76801 117.248 7.01315L114.357 25.2477C114.319 25.5022 114.49 25.738 114.745 25.7851C114.774 25.7851 114.793 25.7945 114.821 25.7945H118.252C118.499 25.7945 118.717 25.6154 118.754 25.3702L121.636 7.13571C121.674 6.88115 121.503 6.64544 121.247 6.5983C121.219 6.5983 121.2 6.58887 121.171 6.58887H117.75Z" fill="#0070E0"/>
<path d="M10.5468 6.58887C10.0919 6.58887 9.70328 6.91886 9.62746 7.37142L8.10156 16.9695C8.16791 16.517 8.55649 16.187 9.02089 16.187H13.4754C17.9583 16.187 21.7683 12.9342 22.4601 8.52169C22.5075 8.1917 22.5454 7.8617 22.5454 7.52228C21.4081 6.92829 20.0623 6.58887 18.6028 6.58887H10.5468Z" fill="#001C64"/>
<path d="M22.5641 7.53223C22.5546 7.86222 22.5261 8.20164 22.4788 8.53164C21.7869 12.9441 17.9769 16.1969 13.494 16.1969H9.03951C8.58458 16.1969 8.196 16.5269 8.12018 16.9795L6.71749 25.8045L5.84555 31.3389C5.77921 31.7444 6.06354 32.1309 6.47108 32.1969C6.50899 32.2064 6.5469 32.2064 6.59429 32.2064H11.4373C11.8923 32.2064 12.2809 31.8764 12.3567 31.4238L13.6267 23.3814C13.7025 22.9288 14.0911 22.5988 14.546 22.5988H17.3988C21.8817 22.5988 25.6917 19.346 26.3835 14.9335C26.8574 11.7939 25.2747 8.94649 22.5641 7.53223Z" fill="#0070E0"/>
<path d="M5.05029 0.196928C4.59536 0.196928 4.20678 0.526922 4.13096 0.979486L0.330432 24.9276C0.254611 25.3802 0.614762 25.795 1.07917 25.795H6.70887L8.11156 16.9701L9.63745 7.37194C9.71327 6.91938 10.0924 6.58938 10.5568 6.58938H18.6222C20.0913 6.58938 21.4276 6.92881 22.5649 7.5228C22.6407 3.5063 19.3141 0.1875 14.7269 0.1875L5.05029 0.196928Z" fill="#003087"/>
</g>
<defs>
<clipPath id="clip0_4068_7519">
<rect width="124.667" height="32" fill="white" transform="translate(0.332031 0.194336)"/>
</clipPath>
</defs>
</svg>
