<svg width="161" height="33" viewBox="0 0 161 33" fill="none" xmlns="http://www.w3.org/2000/svg">
<path d="M71.8921 11.3416L75.2521 8.83496H64.1055V23.7683H75.2521V21.2616H67.2521V17.475H74.0788V14.9683H67.2521V11.3416H71.8921Z" fill="#21A038"/>
<path d="M55.6259 14.701H51.7326V11.3944H57.9193L61.2793 8.8877H48.5859V23.821H55.2526C58.9859 23.821 61.1193 22.1144 61.1193 19.1277C61.0659 16.2477 59.1459 14.701 55.6259 14.701ZM55.0926 21.3144H51.7326V17.2077H55.0926C57.1193 17.2077 58.0793 17.901 58.0793 19.2877C58.0793 20.6744 57.0659 21.3144 55.0926 21.3144Z" fill="#21A038"/>
<path d="M84.2675 8.8877H78.1875V23.821H81.3875V19.6077H84.2675C88.1075 19.6077 90.5608 17.581 90.5608 14.2744C90.5608 10.9677 88.1608 8.8877 84.2675 8.8877ZM84.2142 17.0477H81.3875V11.341H84.2142C86.2942 11.341 87.3608 12.3544 87.3608 14.221C87.3608 16.0877 86.2408 17.0477 84.2142 17.0477Z" fill="#21A038"/>
<path d="M43.0947 20.5674C42.2413 21.0474 41.2813 21.2607 40.3213 21.2607C37.4413 21.2607 35.3613 19.1807 35.3613 16.3007C35.3613 13.4207 37.4413 11.3407 40.3213 11.3407C41.3347 11.3407 42.4013 11.6607 43.2013 12.2474L45.4947 10.5407L45.3347 10.3807C44.0013 9.20738 42.2413 8.56738 40.1613 8.56738C37.9747 8.56738 35.948 9.31405 34.508 10.7007C33.068 12.1407 32.2147 14.114 32.268 16.1407C32.268 18.2207 33.068 20.194 34.508 21.6874C36.0547 23.1274 38.0813 23.9274 40.1613 23.874C42.4547 23.874 44.4813 23.074 45.8147 21.5807L43.788 20.034L43.0947 20.5674Z" fill="#21A038"/>
<path d="M128.96 8.8877V23.821H132.16V17.6877H138.933V23.821H142.133V8.8877H138.933V15.021H132.16V8.8877H128.96ZM123.467 23.821H126.827L120.587 8.8877H117.333L110.987 23.821H114.187L115.467 20.8344H122.24L123.467 23.821ZM116.427 18.3277L118.88 12.3544L121.173 18.3277H116.427ZM149.28 17.7944H151.253L156.16 23.821H160.267L153.76 16.0877L159.467 8.8877H155.84L151.093 15.2877H149.333V8.8877H146.133V23.821H149.333V17.7944H149.28ZM100.427 14.701V11.3944H108.747V8.8877H97.2266V23.821H103.893C107.627 23.821 109.76 22.1144 109.76 19.1277C109.76 16.2477 107.84 14.701 104.32 14.701H100.427ZM100.427 21.3144V17.2077H103.787C105.813 17.2077 106.773 17.901 106.773 19.2877C106.773 20.6744 105.76 21.3677 103.787 21.3677L100.427 21.3144Z" fill="#21A038"/>
<path d="M22.4 8.78125C22.9867 9.52792 23.4667 10.3812 23.8933 11.2346L12.6933 19.5546L8 16.5679V12.9946L12.64 15.9279L22.4 8.78125Z" fill="#21A038"/>
<path d="M3.25245 16.3539C3.25245 16.1939 3.25245 16.0339 3.25245 15.8739L0.425781 15.7139C0.425781 15.9272 0.425781 16.1405 0.425781 16.3005C0.425781 19.7139 1.81245 22.8072 4.05245 25.0472L6.07912 23.0205C4.31912 21.3672 3.25245 18.9672 3.25245 16.3539Z" fill="url(#paint0_linear_4068_7530)"/>
<path d="M12.6947 6.80773C12.8547 6.80773 13.0147 6.80773 13.1747 6.80773L13.3347 3.92773C13.1214 3.92773 12.908 3.92773 12.748 3.92773C9.33469 3.92773 6.24135 5.36773 4.05469 7.60773L6.08135 9.6344C7.73469 7.8744 10.0814 6.80773 12.6947 6.80773Z" fill="url(#paint1_linear_4068_7530)"/>
<path d="M12.6947 25.8476C12.5347 25.8476 12.3747 25.8476 12.2147 25.8476L12.0547 28.7276C12.268 28.7276 12.4814 28.7276 12.6414 28.7276C16.0014 28.7276 19.0947 27.3409 21.3347 25.1009L19.308 23.0742C17.6547 24.8342 15.308 25.8476 12.6947 25.8476Z" fill="url(#paint2_linear_4068_7530)"/>
<path d="M17.9714 8.46107L20.3714 6.70107C18.2914 4.9944 15.6247 3.92773 12.6914 3.92773V6.80773C14.6647 6.80773 16.4781 7.44773 17.9714 8.46107Z" fill="url(#paint3_linear_4068_7530)"/>
<path d="M24.9591 16.3543C24.9591 15.6076 24.9057 14.8609 24.7457 14.1143L22.1324 16.0876C22.1324 16.1409 22.1324 16.2476 22.1324 16.3543C22.1324 19.1809 20.9057 21.6876 19.0391 23.3943L20.9591 25.5276C23.4124 23.2876 24.9591 19.9809 24.9591 16.3543Z" fill="#21A038"/>
<path d="M12.6917 25.8478C9.91833 25.8478 7.41167 24.6212 5.705 22.7012L3.625 24.6212C5.865 27.1278 9.11833 28.6745 12.6917 28.6745V25.8478Z" fill="url(#paint4_linear_4068_7530)"/>
<path d="M6.34578 9.26126L4.47911 7.12793C1.97245 9.42126 0.425781 12.6746 0.425781 16.3546H3.25245C3.25245 13.5279 4.47911 11.0213 6.34578 9.26126Z" fill="url(#paint5_linear_4068_7530)"/>
<defs>
<linearGradient id="paint0_linear_4068_7530" x1="4.50962" y1="24.4666" x2="1.60619" y2="16.0358" gradientUnits="userSpaceOnUse">
<stop offset="0.1444" stop-color="#F2E913"/>
<stop offset="0.3037" stop-color="#E7E518"/>
<stop offset="0.5823" stop-color="#CADB26"/>
<stop offset="0.891" stop-color="#A3CD39"/>
</linearGradient>
<linearGradient id="paint1_linear_4068_7530" x1="5.11271" y1="7.99182" x2="12.4487" y2="5.18345" gradientUnits="userSpaceOnUse">
<stop offset="0.0592" stop-color="#0FA8E0"/>
<stop offset="0.5385" stop-color="#0099F9"/>
<stop offset="0.9234" stop-color="#0291EB"/>
</linearGradient>
<linearGradient id="paint2_linear_4068_7530" x1="12.0377" y1="26.951" x2="20.779" y2="24.9666" gradientUnits="userSpaceOnUse">
<stop offset="0.1226" stop-color="#A3CD39"/>
<stop offset="0.2846" stop-color="#86C339"/>
<stop offset="0.8693" stop-color="#21A038"/>
</linearGradient>
<linearGradient id="paint3_linear_4068_7530" x1="12.3377" y1="4.97693" x2="19.6071" y2="7.23007" gradientUnits="userSpaceOnUse">
<stop offset="0.0566" stop-color="#0291EB"/>
<stop offset="0.79" stop-color="#0C8ACB"/>
</linearGradient>
<linearGradient id="paint4_linear_4068_7530" x1="4.57393" y1="24.3982" x2="12.3839" y2="27.3295" gradientUnits="userSpaceOnUse">
<stop offset="0.1324" stop-color="#F2E913"/>
<stop offset="0.2977" stop-color="#EBE716"/>
<stop offset="0.5306" stop-color="#D9E01F"/>
<stop offset="0.8023" stop-color="#BBD62D"/>
<stop offset="0.9829" stop-color="#A3CD39"/>
</linearGradient>
<linearGradient id="paint5_linear_4068_7530" x1="1.62654" y1="16.3139" x2="4.76511" y2="8.11259" gradientUnits="userSpaceOnUse">
<stop offset="0.0698" stop-color="#A3CD39"/>
<stop offset="0.2599" stop-color="#81C55F"/>
<stop offset="0.9216" stop-color="#0FA8E0"/>
</linearGradient>
</defs>
</svg>
