<svg width="350" height="514" viewBox="0 0 350 514" fill="none" xmlns="http://www.w3.org/2000/svg">
<path d="M271.1 459.52C234.932 404.245 211.691 396.292 211.691 396.292C211.691 396.292 199.168 341.422 161.527 266.323C161.527 266.323 197.596 298.858 226.024 327.637C254.453 356.416 302.134 382.471 307.727 375.356C313.32 368.24 299.007 329.5 269.666 303.699C240.325 277.898 212.802 268.177 159.77 262.826C142.489 228.787 120.103 190.754 91.4383 151.903C91.4383 151.903 347.615 287.401 349.76 234.907C354.049 129.225 138.356 131.523 85.5809 144.059C62.2802 113.317 35.0336 82.1749 3.25544 52.2048C3.25544 52.2048 250.221 129.048 236.316 77.6998C214.949 -1.20856 31.3232 25.7515 -2.73584 46.6342L-2.7375 46.6513C-17.9563 32.6148 -34.1557 18.8644 -51.4536 5.54449C-71.1215 -9.59914 -75.2216 10.1695 -56.9324 22.7366C-45.9016 31.1868 -35.327 39.6967 -25.1915 48.268C-48.6373 105.488 -31.8777 259.417 3.99758 259.466C39.8728 259.515 33.9666 112.65 -17.5123 54.8339C16.4967 84.31 45.3786 114.311 69.8882 143.663C46.9789 190.35 27.015 278.122 28.0023 327.075C28.9896 376.027 37.6817 400.553 49.2214 403.578C60.761 406.603 90.9927 398.031 94.9036 306.432C98.7927 215.593 74.426 149.751 74.0298 148.656C105.061 186.506 128.86 223.186 147.001 256.217C127.284 284.277 119.847 349.53 119.683 392.133C119.534 434.756 128.35 479.443 147.694 481.319C167.037 483.194 177.82 433.634 171.273 381.994C164.737 330.408 149.767 265.928 150.086 261.922C192.207 340.487 202.088 397.058 202.088 397.058C202.088 397.058 205.994 497.558 222.825 494.079C239.655 490.601 226.537 438.116 226.537 438.116C226.537 438.116 228.859 443.469 254.131 488.002C279.402 532.553 307.286 514.779 271.119 459.504L271.1 459.52Z" fill="#E7F2E3"/>
</svg>
