<svg width="325" height="464" viewBox="0 0 325 464" fill="none" xmlns="http://www.w3.org/2000/svg">
<path d="M145.922 333.77C145.832 334.651 145.749 335.524 145.659 336.42C137.827 417.831 173.34 463.051 173.34 463.051C175.328 446.447 196.105 407.597 201.429 348.379C202.438 337.173 202.076 326.638 200.796 316.894C217.077 347.58 252.274 388.199 252.274 388.199C250.896 365.231 260.083 342.716 252.274 298.618C249.826 284.785 245.248 269.106 238.983 253.601C249.563 265.838 259.766 275.921 267.206 283.504C282.9 299.506 291.823 312.737 291.823 312.737C285.671 291.818 289.67 281.049 287.825 261.358C286.303 245.107 281.416 222.561 265.407 189.759C285.114 206.243 307.208 219.639 307.208 219.639C296.929 143.854 252.161 86.7131 224.532 63.9638C223.169 62.8418 221.851 61.7951 220.586 60.8086C221.271 61.0797 221.964 61.3508 222.664 61.6068C250.881 72.1493 277.003 75.5003 296.53 74.431C316.056 73.3617 324.641 74.6268 324.641 74.6268C305.559 65.5377 310.167 59.6414 296.515 46.2072C282.862 32.773 257.387 17.3433 219.178 6.7179C180.969 -3.90746 179.734 9.71499 178.8 11.5524C177.61 13.8868 173.807 15.5284 169.447 13.9471C168.235 10.0539 166.932 6.52211 165.531 3.38194C163.724 -0.654336 159.936 0.0309277 161.043 6.28114C161.563 8.31434 162.06 10.3551 162.549 12.4033C148.55 4.00697 134.83 0.0911703 104.422 15.295C73.3219 30.8452 52.6962 64.4834 30.8055 79.0773C30.8055 79.0773 50.7986 77.4884 74.5946 75.5832C76.9215 75.3949 79.5872 75.0184 82.509 74.4612C68.7585 81.2686 56.3033 88.9044 47.5154 96.5703C18.5912 121.797 14.9013 137.49 0.442963 148.568C0.442963 148.568 20.7524 146.105 54.5939 139.953C88.4354 133.801 157.09 107.512 170.456 60.658L170.931 59.4983C173.001 76.0501 174.244 92.5115 174.869 108.423C170.908 114.319 165.32 108.453 151.352 111.804C137.383 115.155 81.274 142.905 46.0544 200.444C10.8424 257.984 24.2088 256.41 10.5261 277.48C10.5261 277.48 15.5564 273.391 47.312 256.418C72.1472 243.142 82.3659 237.938 98.7294 222.764C97.6751 224.24 96.6209 225.754 95.5817 227.328C66.2509 271.81 59.9706 314.07 47.3949 336.42C47.3949 336.42 62.4104 329.086 84.7606 313.724C96.7715 305.47 106.659 296.713 115.951 286.26C114.031 289.687 112.081 293.377 110.123 297.375C82.7048 353.311 87.1778 420.437 87.1778 420.437C87.1778 420.437 101.998 403.938 113.745 391.068C119.709 384.539 133.7 361.948 145.915 333.77H145.922ZM169.884 244.806C171.488 235.769 172.904 226.537 174.146 217.199C175.502 224.918 178.469 243.669 183.16 263.956C177.023 252.999 171.39 246.297 169.884 244.806ZM198.785 190.007C192.355 183.923 185.54 179.103 178.446 176.008C179.839 157.92 180.585 139.915 180.698 122.603C181.262 126.21 186.669 159.547 198.785 190V190.007ZM199.953 116.812C193.989 114.462 189.598 113.672 187.829 113.672C181.985 113.672 180.652 108.438 180.652 108.438V108.551C180.374 88.0083 179.161 68.7456 177.038 51.8625C180.344 51.87 182.874 54.4605 182.874 54.4605C177.03 73.1283 186.157 95.6817 199.953 116.812ZM176.827 21.854C177.173 29.3994 183.898 38.8425 195.706 47.4497C190.216 46.5461 187.784 48.4588 186.88 49.1064C185.027 50.4242 183.446 47.1259 176.337 46.6138C174.809 35.8303 172.889 26.1312 170.577 17.8403C173.084 18.1189 175.886 19.6777 176.834 21.8615L176.827 21.854ZM132.292 55.2813C148.121 45.8005 161.134 33.383 163.491 18.7891L163.89 18.3222C166.277 29.1283 168.22 40.0624 169.778 50.9965L169.033 50.4769C160.863 49.0838 147.504 51.0718 132.292 55.2888V55.2813ZM175.057 114.018C175.72 135.231 175.328 155.337 174.447 173.192C166.382 177.356 146.419 180.519 125.357 195.76C149.846 169.645 174.861 139.14 175.057 114.018ZM174.086 179.917C172.753 202.847 170.667 221.559 169.131 233.352C163.197 239.58 152.647 242.373 139.642 254.625C154.996 231.244 170.562 189.578 174.078 179.917H174.086Z" fill="#E7F2E3"/>
</svg>
