<svg width="260" height="349" viewBox="0 0 260 349" fill="none" xmlns="http://www.w3.org/2000/svg">
<path d="M218.746 310.315C188.638 272.783 171.229 268.651 171.229 268.651C171.229 268.651 158.291 229.75 125.721 177.95C125.721 177.95 154.159 199.002 176.793 217.868C199.427 236.734 235.828 252.272 239.383 246.72C242.938 241.168 229.837 214.087 206.75 197.444C183.664 180.801 163.027 175.689 124.201 175.538C109.279 152.075 90.3754 126.074 66.8618 99.9229C66.8618 99.9229 262.118 180.148 259.983 141.938C255.662 65.0167 99.4442 81.848 62.0636 94.6474C43.009 73.9976 21.0654 53.3352 -4.08112 33.841C-4.08112 33.841 180.373 72.1888 166.682 35.9386C145.643 -19.7681 14.4082 12.6887 -8.8165 30.2235L-8.8165 30.2361C-20.8371 21.1295 -33.5485 12.2994 -47.0262 3.85856C-62.3502 -5.73782 -63.9329 8.88284 -49.7895 16.7082C-41.198 22.059 -32.9331 27.4853 -24.9821 32.9868C-37.9573 76.1203 -14.9838 186.542 11.0294 184.054C37.0426 181.567 22.4345 75.5048 -18.953 37.2072C7.77618 56.1865 30.8251 75.9068 50.6584 95.4638C37.3315 130.923 29.0289 195.962 33.1865 231.383C37.3441 266.804 45.3704 283.975 53.9493 285.357C62.5283 286.738 83.8438 278.398 80.2389 211.713C76.6717 145.581 54.3764 99.5586 54.0121 98.7924C79.1712 124.052 99.0046 148.972 114.479 171.645C102.157 193.375 101.353 241.206 104.23 272.105C107.119 303.017 116.652 334.796 130.808 334.796C144.964 334.796 149.298 298.106 140.92 261.127C132.554 224.186 117.167 178.49 117.117 175.563C153.179 229.562 164.32 269.882 164.32 269.882C164.32 269.882 174.218 342.47 186.176 338.765C198.134 335.059 184.932 297.93 184.932 297.93C184.932 297.93 186.992 301.648 208.446 332.158C229.9 362.68 248.866 347.834 218.758 310.302L218.746 310.315Z" fill="#3A8D3A"/>
</svg>
