<svg width="222" height="341" viewBox="0 0 222 341" fill="none" xmlns="http://www.w3.org/2000/svg">
<path d="M168.594 334.683C170.748 337.302 166.976 340.508 161.799 340.832C156.621 341.155 140.451 306.874 132.371 284.879C124.291 262.884 111.024 208.054 111.024 208.054C111.024 208.054 107.828 203.261 108.829 213.323C109.83 223.385 112.854 234.65 104.198 249.94C95.5414 265.23 77.8445 270.459 76.631 283.746C76.631 285.334 74.9726 285.01 75.1344 282.917C75.2962 280.824 75.3771 271.652 73.3647 266.161C71.3523 260.67 67.0646 243.519 72.6972 228.916C78.3299 214.314 97.0178 207.609 99.7583 203.595C104.238 197.042 99.4954 194.615 91.4559 197.972C83.4165 201.319 59.106 219.633 33.8348 213.313C8.56367 206.992 13.0233 194.17 -8.53658 182.47C-30.0965 170.759 -47.0046 168.909 -50.1597 168.717C-53.3148 168.535 -53.3148 162.77 -44.3956 163.327C-35.4763 163.883 -28.0436 161.658 -16.8895 153.103C-5.73541 144.548 26.2201 135.264 45.3631 149.199C64.5061 163.134 89.5346 202.159 101.801 189.144C114.068 176.129 71.3927 167.291 47.9519 137.378C24.5111 107.465 23.4291 74.3264 29.0921 52.7665C34.7551 31.2066 54.4947 42.0978 42.4103 5.8242C40.2158 -0.223081 45.3429 -1.13321 48.0935 4.53991C50.8441 10.213 49.1958 25.2402 76.8535 30.1852C104.511 35.1303 121.419 52.6957 124.767 84.6411C128.114 116.587 103.904 181.752 114.462 185.362C125.019 188.972 125.282 138.227 139.45 109.376C153.618 80.5253 172.417 70.9993 189.679 69.1892C206.941 67.3791 207.639 66.1555 214.06 58.9149C218.176 54.971 221.958 58.2576 217.842 63.5161C213.726 68.7746 213.726 82.3961 216.224 101.762C218.722 121.127 222.261 138.197 204.979 151.738C187.697 165.268 120.024 180.265 123.563 193.796C127.103 207.326 156.459 182.763 181.862 197.123C207.264 211.482 199.144 226.277 209.348 230.646C219.551 235.014 222.029 234.893 221.695 237.714C221.361 240.536 211.765 235.348 205.11 237.381C198.456 239.413 190.599 254.976 166.187 248.626C141.776 242.275 134.616 231.05 127.942 218.521C121.268 205.991 120.944 198.993 116.06 200.783C111.175 202.573 148.45 310.1 168.614 334.663L168.594 334.683Z" fill="#E7F2E3"/>
</svg>
